%TF.GenerationSoftware,KiCad,Pcbnew,9.0.2*%
%TF.CreationDate,2025-05-15T01:06:17-04:00*%
%TF.ProjectId,Udemy_Project_1,5564656d-795f-4507-926f-6a6563745f31,1*%
%TF.SameCoordinates,Original*%
%TF.FileFunction,Legend,Bot*%
%TF.FilePolarity,Positive*%
%FSLAX46Y46*%
G04 Gerber Fmt 4.6, Leading zero omitted, Abs format (unit mm)*
G04 Created by KiCad (PCBNEW 9.0.2) date 2025-05-15 01:06:17*
%MOMM*%
%LPD*%
G01*
G04 APERTURE LIST*
%ADD10C,0.100000*%
%ADD11C,0.010000*%
G04 APERTURE END LIST*
D10*
X157238972Y-139372419D02*
X156905639Y-140372419D01*
X156905639Y-140372419D02*
X156572306Y-139372419D01*
X155858020Y-140324800D02*
X155953258Y-140372419D01*
X155953258Y-140372419D02*
X156143734Y-140372419D01*
X156143734Y-140372419D02*
X156238972Y-140324800D01*
X156238972Y-140324800D02*
X156286591Y-140229561D01*
X156286591Y-140229561D02*
X156286591Y-139848609D01*
X156286591Y-139848609D02*
X156238972Y-139753371D01*
X156238972Y-139753371D02*
X156143734Y-139705752D01*
X156143734Y-139705752D02*
X155953258Y-139705752D01*
X155953258Y-139705752D02*
X155858020Y-139753371D01*
X155858020Y-139753371D02*
X155810401Y-139848609D01*
X155810401Y-139848609D02*
X155810401Y-139943847D01*
X155810401Y-139943847D02*
X156286591Y-140039085D01*
X155381829Y-140372419D02*
X155381829Y-139705752D01*
X155381829Y-139896228D02*
X155334210Y-139800990D01*
X155334210Y-139800990D02*
X155286591Y-139753371D01*
X155286591Y-139753371D02*
X155191353Y-139705752D01*
X155191353Y-139705752D02*
X155096115Y-139705752D01*
X154810400Y-140324800D02*
X154715162Y-140372419D01*
X154715162Y-140372419D02*
X154524686Y-140372419D01*
X154524686Y-140372419D02*
X154429448Y-140324800D01*
X154429448Y-140324800D02*
X154381829Y-140229561D01*
X154381829Y-140229561D02*
X154381829Y-140181942D01*
X154381829Y-140181942D02*
X154429448Y-140086704D01*
X154429448Y-140086704D02*
X154524686Y-140039085D01*
X154524686Y-140039085D02*
X154667543Y-140039085D01*
X154667543Y-140039085D02*
X154762781Y-139991466D01*
X154762781Y-139991466D02*
X154810400Y-139896228D01*
X154810400Y-139896228D02*
X154810400Y-139848609D01*
X154810400Y-139848609D02*
X154762781Y-139753371D01*
X154762781Y-139753371D02*
X154667543Y-139705752D01*
X154667543Y-139705752D02*
X154524686Y-139705752D01*
X154524686Y-139705752D02*
X154429448Y-139753371D01*
X153953257Y-140372419D02*
X153953257Y-139705752D01*
X153953257Y-139372419D02*
X154000876Y-139420038D01*
X154000876Y-139420038D02*
X153953257Y-139467657D01*
X153953257Y-139467657D02*
X153905638Y-139420038D01*
X153905638Y-139420038D02*
X153953257Y-139372419D01*
X153953257Y-139372419D02*
X153953257Y-139467657D01*
X153334210Y-140372419D02*
X153429448Y-140324800D01*
X153429448Y-140324800D02*
X153477067Y-140277180D01*
X153477067Y-140277180D02*
X153524686Y-140181942D01*
X153524686Y-140181942D02*
X153524686Y-139896228D01*
X153524686Y-139896228D02*
X153477067Y-139800990D01*
X153477067Y-139800990D02*
X153429448Y-139753371D01*
X153429448Y-139753371D02*
X153334210Y-139705752D01*
X153334210Y-139705752D02*
X153191353Y-139705752D01*
X153191353Y-139705752D02*
X153096115Y-139753371D01*
X153096115Y-139753371D02*
X153048496Y-139800990D01*
X153048496Y-139800990D02*
X153000877Y-139896228D01*
X153000877Y-139896228D02*
X153000877Y-140181942D01*
X153000877Y-140181942D02*
X153048496Y-140277180D01*
X153048496Y-140277180D02*
X153096115Y-140324800D01*
X153096115Y-140324800D02*
X153191353Y-140372419D01*
X153191353Y-140372419D02*
X153334210Y-140372419D01*
X152572305Y-139705752D02*
X152572305Y-140372419D01*
X152572305Y-139800990D02*
X152524686Y-139753371D01*
X152524686Y-139753371D02*
X152429448Y-139705752D01*
X152429448Y-139705752D02*
X152286591Y-139705752D01*
X152286591Y-139705752D02*
X152191353Y-139753371D01*
X152191353Y-139753371D02*
X152143734Y-139848609D01*
X152143734Y-139848609D02*
X152143734Y-140372419D01*
X150381829Y-140372419D02*
X150953257Y-140372419D01*
X150667543Y-140372419D02*
X150667543Y-139372419D01*
X150667543Y-139372419D02*
X150762781Y-139515276D01*
X150762781Y-139515276D02*
X150858019Y-139610514D01*
X150858019Y-139610514D02*
X150953257Y-139658133D01*
X149953257Y-140277180D02*
X149905638Y-140324800D01*
X149905638Y-140324800D02*
X149953257Y-140372419D01*
X149953257Y-140372419D02*
X150000876Y-140324800D01*
X150000876Y-140324800D02*
X149953257Y-140277180D01*
X149953257Y-140277180D02*
X149953257Y-140372419D01*
X149286591Y-139372419D02*
X149191353Y-139372419D01*
X149191353Y-139372419D02*
X149096115Y-139420038D01*
X149096115Y-139420038D02*
X149048496Y-139467657D01*
X149048496Y-139467657D02*
X149000877Y-139562895D01*
X149000877Y-139562895D02*
X148953258Y-139753371D01*
X148953258Y-139753371D02*
X148953258Y-139991466D01*
X148953258Y-139991466D02*
X149000877Y-140181942D01*
X149000877Y-140181942D02*
X149048496Y-140277180D01*
X149048496Y-140277180D02*
X149096115Y-140324800D01*
X149096115Y-140324800D02*
X149191353Y-140372419D01*
X149191353Y-140372419D02*
X149286591Y-140372419D01*
X149286591Y-140372419D02*
X149381829Y-140324800D01*
X149381829Y-140324800D02*
X149429448Y-140277180D01*
X149429448Y-140277180D02*
X149477067Y-140181942D01*
X149477067Y-140181942D02*
X149524686Y-139991466D01*
X149524686Y-139991466D02*
X149524686Y-139753371D01*
X149524686Y-139753371D02*
X149477067Y-139562895D01*
X149477067Y-139562895D02*
X149429448Y-139467657D01*
X149429448Y-139467657D02*
X149381829Y-139420038D01*
X149381829Y-139420038D02*
X149286591Y-139372419D01*
D11*
%TO.C,REF\u002A\u002A*%
X149355406Y-137529949D02*
X149381127Y-137545647D01*
X149407778Y-137567227D01*
X149407778Y-138214684D01*
X149381127Y-138236264D01*
X149349767Y-138253739D01*
X149313966Y-138254575D01*
X149282528Y-138234082D01*
X149278652Y-138229416D01*
X149273186Y-138219949D01*
X149268979Y-138206267D01*
X149265867Y-138185748D01*
X149263687Y-138155768D01*
X149262276Y-138113704D01*
X149261471Y-138056932D01*
X149261107Y-137982830D01*
X149261022Y-137888773D01*
X149261022Y-137567227D01*
X149287673Y-137545647D01*
X149311386Y-137530877D01*
X149334400Y-137524067D01*
X149355406Y-137529949D01*
G36*
X149355406Y-137529949D02*
G01*
X149381127Y-137545647D01*
X149407778Y-137567227D01*
X149407778Y-138214684D01*
X149381127Y-138236264D01*
X149349767Y-138253739D01*
X149313966Y-138254575D01*
X149282528Y-138234082D01*
X149278652Y-138229416D01*
X149273186Y-138219949D01*
X149268979Y-138206267D01*
X149265867Y-138185748D01*
X149263687Y-138155768D01*
X149262276Y-138113704D01*
X149261471Y-138056932D01*
X149261107Y-137982830D01*
X149261022Y-137888773D01*
X149261022Y-137567227D01*
X149287673Y-137545647D01*
X149311386Y-137530877D01*
X149334400Y-137524067D01*
X149355406Y-137529949D01*
G37*
X156486137Y-137528463D02*
X156520291Y-137551776D01*
X156548000Y-137579485D01*
X156548000Y-137892537D01*
X156547959Y-137976567D01*
X156547701Y-138050789D01*
X156547030Y-138107541D01*
X156545752Y-138149512D01*
X156543673Y-138179389D01*
X156540599Y-138199861D01*
X156536334Y-138213614D01*
X156530684Y-138223337D01*
X156523455Y-138231717D01*
X156491991Y-138253181D01*
X156456826Y-138254947D01*
X156423822Y-138235267D01*
X156418516Y-138229398D01*
X156413066Y-138220314D01*
X156408900Y-138206973D01*
X156405846Y-138186757D01*
X156403732Y-138157049D01*
X156402386Y-138115232D01*
X156401638Y-138058689D01*
X156401314Y-137984802D01*
X156401245Y-137890956D01*
X156401284Y-137815294D01*
X156401539Y-137737385D01*
X156402183Y-137677375D01*
X156403387Y-137632648D01*
X156405324Y-137600585D01*
X156408164Y-137578571D01*
X156412079Y-137563987D01*
X156417242Y-137554218D01*
X156423822Y-137546645D01*
X156453006Y-137527623D01*
X156486137Y-137528463D01*
G36*
X156486137Y-137528463D02*
G01*
X156520291Y-137551776D01*
X156548000Y-137579485D01*
X156548000Y-137892537D01*
X156547959Y-137976567D01*
X156547701Y-138050789D01*
X156547030Y-138107541D01*
X156545752Y-138149512D01*
X156543673Y-138179389D01*
X156540599Y-138199861D01*
X156536334Y-138213614D01*
X156530684Y-138223337D01*
X156523455Y-138231717D01*
X156491991Y-138253181D01*
X156456826Y-138254947D01*
X156423822Y-138235267D01*
X156418516Y-138229398D01*
X156413066Y-138220314D01*
X156408900Y-138206973D01*
X156405846Y-138186757D01*
X156403732Y-138157049D01*
X156402386Y-138115232D01*
X156401638Y-138058689D01*
X156401314Y-137984802D01*
X156401245Y-137890956D01*
X156401284Y-137815294D01*
X156401539Y-137737385D01*
X156402183Y-137677375D01*
X156403387Y-137632648D01*
X156405324Y-137600585D01*
X156408164Y-137578571D01*
X156412079Y-137563987D01*
X156417242Y-137554218D01*
X156423822Y-137546645D01*
X156453006Y-137527623D01*
X156486137Y-137528463D01*
G37*
X155954562Y-132287850D02*
X156037313Y-132315053D01*
X156112406Y-132360484D01*
X156184298Y-132426302D01*
X156222846Y-132470567D01*
X156262256Y-132528961D01*
X156287446Y-132589586D01*
X156300861Y-132658865D01*
X156304948Y-132743222D01*
X156304669Y-132789307D01*
X156302460Y-132830450D01*
X156296894Y-132862582D01*
X156286586Y-132893122D01*
X156270148Y-132929489D01*
X156256200Y-132956728D01*
X156197665Y-133042429D01*
X156125619Y-133111617D01*
X156041947Y-133162741D01*
X155948531Y-133194250D01*
X155915434Y-133201225D01*
X155874960Y-133208094D01*
X155841999Y-133209919D01*
X155807698Y-133206947D01*
X155763200Y-133199426D01*
X155711934Y-133187002D01*
X155621434Y-133149112D01*
X155542345Y-133094836D01*
X155476528Y-133026770D01*
X155425840Y-132947511D01*
X155392140Y-132859654D01*
X155377286Y-132765795D01*
X155383136Y-132668530D01*
X155409399Y-132572220D01*
X155454418Y-132483494D01*
X155515373Y-132408419D01*
X155590184Y-132348641D01*
X155676768Y-132305809D01*
X155773043Y-132281571D01*
X155876928Y-132277576D01*
X155954562Y-132287850D01*
G36*
X155954562Y-132287850D02*
G01*
X156037313Y-132315053D01*
X156112406Y-132360484D01*
X156184298Y-132426302D01*
X156222846Y-132470567D01*
X156262256Y-132528961D01*
X156287446Y-132589586D01*
X156300861Y-132658865D01*
X156304948Y-132743222D01*
X156304669Y-132789307D01*
X156302460Y-132830450D01*
X156296894Y-132862582D01*
X156286586Y-132893122D01*
X156270148Y-132929489D01*
X156256200Y-132956728D01*
X156197665Y-133042429D01*
X156125619Y-133111617D01*
X156041947Y-133162741D01*
X155948531Y-133194250D01*
X155915434Y-133201225D01*
X155874960Y-133208094D01*
X155841999Y-133209919D01*
X155807698Y-133206947D01*
X155763200Y-133199426D01*
X155711934Y-133187002D01*
X155621434Y-133149112D01*
X155542345Y-133094836D01*
X155476528Y-133026770D01*
X155425840Y-132947511D01*
X155392140Y-132859654D01*
X155377286Y-132765795D01*
X155383136Y-132668530D01*
X155409399Y-132572220D01*
X155454418Y-132483494D01*
X155515373Y-132408419D01*
X155590184Y-132348641D01*
X155676768Y-132305809D01*
X155773043Y-132281571D01*
X155876928Y-132277576D01*
X155954562Y-132287850D01*
G37*
X148655767Y-137524068D02*
X148749890Y-137524158D01*
X148824405Y-137524498D01*
X148881811Y-137525239D01*
X148924611Y-137526535D01*
X148955304Y-137528537D01*
X148976391Y-137531396D01*
X148990373Y-137535266D01*
X148999750Y-137540298D01*
X149007022Y-137546645D01*
X149025828Y-137579362D01*
X149027275Y-137616939D01*
X149010917Y-137650178D01*
X149009557Y-137651631D01*
X148998354Y-137659992D01*
X148981252Y-137665547D01*
X148954082Y-137668840D01*
X148912678Y-137670418D01*
X148852873Y-137670822D01*
X148713511Y-137670822D01*
X148713511Y-137934589D01*
X148713436Y-138010417D01*
X148713028Y-138077083D01*
X148712046Y-138126867D01*
X148710250Y-138162784D01*
X148707399Y-138187850D01*
X148703253Y-138205081D01*
X148697571Y-138217492D01*
X148690114Y-138228100D01*
X148687824Y-138230906D01*
X148656646Y-138253548D01*
X148622266Y-138255112D01*
X148589334Y-138235267D01*
X148582355Y-138227191D01*
X148576883Y-138216593D01*
X148572863Y-138200749D01*
X148570072Y-138176773D01*
X148568288Y-138141774D01*
X148567289Y-138092864D01*
X148566852Y-138027154D01*
X148566756Y-137941756D01*
X148566756Y-137670822D01*
X148420820Y-137670822D01*
X148409720Y-137670821D01*
X148353202Y-137670596D01*
X148314358Y-137669457D01*
X148288965Y-137666657D01*
X148272804Y-137661450D01*
X148261652Y-137653089D01*
X148251289Y-137640826D01*
X148235441Y-137610138D01*
X148238543Y-137576358D01*
X148264187Y-137543822D01*
X148269129Y-137540105D01*
X148279338Y-137535269D01*
X148294764Y-137531506D01*
X148317886Y-137528683D01*
X148351183Y-137526670D01*
X148397137Y-137525333D01*
X148458228Y-137524542D01*
X148536935Y-137524163D01*
X148635740Y-137524067D01*
X148655767Y-137524068D01*
G36*
X148655767Y-137524068D02*
G01*
X148749890Y-137524158D01*
X148824405Y-137524498D01*
X148881811Y-137525239D01*
X148924611Y-137526535D01*
X148955304Y-137528537D01*
X148976391Y-137531396D01*
X148990373Y-137535266D01*
X148999750Y-137540298D01*
X149007022Y-137546645D01*
X149025828Y-137579362D01*
X149027275Y-137616939D01*
X149010917Y-137650178D01*
X149009557Y-137651631D01*
X148998354Y-137659992D01*
X148981252Y-137665547D01*
X148954082Y-137668840D01*
X148912678Y-137670418D01*
X148852873Y-137670822D01*
X148713511Y-137670822D01*
X148713511Y-137934589D01*
X148713436Y-138010417D01*
X148713028Y-138077083D01*
X148712046Y-138126867D01*
X148710250Y-138162784D01*
X148707399Y-138187850D01*
X148703253Y-138205081D01*
X148697571Y-138217492D01*
X148690114Y-138228100D01*
X148687824Y-138230906D01*
X148656646Y-138253548D01*
X148622266Y-138255112D01*
X148589334Y-138235267D01*
X148582355Y-138227191D01*
X148576883Y-138216593D01*
X148572863Y-138200749D01*
X148570072Y-138176773D01*
X148568288Y-138141774D01*
X148567289Y-138092864D01*
X148566852Y-138027154D01*
X148566756Y-137941756D01*
X148566756Y-137670822D01*
X148420820Y-137670822D01*
X148409720Y-137670821D01*
X148353202Y-137670596D01*
X148314358Y-137669457D01*
X148288965Y-137666657D01*
X148272804Y-137661450D01*
X148261652Y-137653089D01*
X148251289Y-137640826D01*
X148235441Y-137610138D01*
X148238543Y-137576358D01*
X148264187Y-137543822D01*
X148269129Y-137540105D01*
X148279338Y-137535269D01*
X148294764Y-137531506D01*
X148317886Y-137528683D01*
X148351183Y-137526670D01*
X148397137Y-137525333D01*
X148458228Y-137524542D01*
X148536935Y-137524163D01*
X148635740Y-137524067D01*
X148655767Y-137524068D01*
G37*
X147979734Y-137546645D02*
X147985366Y-137552835D01*
X147990456Y-137561041D01*
X147994543Y-137572817D01*
X147997721Y-137590276D01*
X148000087Y-137615530D01*
X148001738Y-137650690D01*
X148002769Y-137697869D01*
X148003277Y-137759177D01*
X148003359Y-137836727D01*
X148003109Y-137932631D01*
X148002625Y-138049000D01*
X148002557Y-138063175D01*
X148001971Y-138124937D01*
X148000648Y-138168620D01*
X147998103Y-138198001D01*
X147993848Y-138216855D01*
X147987396Y-138228959D01*
X147978262Y-138238089D01*
X147944804Y-138255506D01*
X147909856Y-138252604D01*
X147878953Y-138228100D01*
X147869944Y-138214897D01*
X147862492Y-138196361D01*
X147858124Y-138170333D01*
X147856069Y-138131787D01*
X147855556Y-138075700D01*
X147855556Y-137953045D01*
X147358845Y-137953045D01*
X147358845Y-138087871D01*
X147358772Y-138123662D01*
X147358009Y-138169992D01*
X147355833Y-138200526D01*
X147351536Y-138219557D01*
X147344412Y-138231374D01*
X147333755Y-138240271D01*
X147301504Y-138255341D01*
X147266217Y-138252673D01*
X147235486Y-138228100D01*
X147230831Y-138221845D01*
X147224895Y-138211321D01*
X147220364Y-138197391D01*
X147217048Y-138177317D01*
X147214759Y-138148360D01*
X147213308Y-138107780D01*
X147212505Y-138052840D01*
X147212162Y-137980799D01*
X147212089Y-137888920D01*
X147212089Y-137579485D01*
X147239798Y-137551776D01*
X147271177Y-137529533D01*
X147304406Y-137526844D01*
X147336267Y-137546645D01*
X147344553Y-137556415D01*
X147351965Y-137572307D01*
X147356302Y-137596275D01*
X147358338Y-137633148D01*
X147358845Y-137687756D01*
X147358845Y-137806289D01*
X147855556Y-137806289D01*
X147855556Y-137690776D01*
X147855994Y-137639078D01*
X147857958Y-137604554D01*
X147862474Y-137581978D01*
X147870567Y-137566126D01*
X147883265Y-137551776D01*
X147914643Y-137529533D01*
X147947872Y-137526844D01*
X147979734Y-137546645D01*
G36*
X147979734Y-137546645D02*
G01*
X147985366Y-137552835D01*
X147990456Y-137561041D01*
X147994543Y-137572817D01*
X147997721Y-137590276D01*
X148000087Y-137615530D01*
X148001738Y-137650690D01*
X148002769Y-137697869D01*
X148003277Y-137759177D01*
X148003359Y-137836727D01*
X148003109Y-137932631D01*
X148002625Y-138049000D01*
X148002557Y-138063175D01*
X148001971Y-138124937D01*
X148000648Y-138168620D01*
X147998103Y-138198001D01*
X147993848Y-138216855D01*
X147987396Y-138228959D01*
X147978262Y-138238089D01*
X147944804Y-138255506D01*
X147909856Y-138252604D01*
X147878953Y-138228100D01*
X147869944Y-138214897D01*
X147862492Y-138196361D01*
X147858124Y-138170333D01*
X147856069Y-138131787D01*
X147855556Y-138075700D01*
X147855556Y-137953045D01*
X147358845Y-137953045D01*
X147358845Y-138087871D01*
X147358772Y-138123662D01*
X147358009Y-138169992D01*
X147355833Y-138200526D01*
X147351536Y-138219557D01*
X147344412Y-138231374D01*
X147333755Y-138240271D01*
X147301504Y-138255341D01*
X147266217Y-138252673D01*
X147235486Y-138228100D01*
X147230831Y-138221845D01*
X147224895Y-138211321D01*
X147220364Y-138197391D01*
X147217048Y-138177317D01*
X147214759Y-138148360D01*
X147213308Y-138107780D01*
X147212505Y-138052840D01*
X147212162Y-137980799D01*
X147212089Y-137888920D01*
X147212089Y-137579485D01*
X147239798Y-137551776D01*
X147271177Y-137529533D01*
X147304406Y-137526844D01*
X147336267Y-137546645D01*
X147344553Y-137556415D01*
X147351965Y-137572307D01*
X147356302Y-137596275D01*
X147358338Y-137633148D01*
X147358845Y-137687756D01*
X147358845Y-137806289D01*
X147855556Y-137806289D01*
X147855556Y-137690776D01*
X147855994Y-137639078D01*
X147857958Y-137604554D01*
X147862474Y-137581978D01*
X147870567Y-137566126D01*
X147883265Y-137551776D01*
X147914643Y-137529533D01*
X147947872Y-137526844D01*
X147979734Y-137546645D01*
G37*
X152685133Y-138135396D02*
X152683163Y-138168175D01*
X152680235Y-138191095D01*
X152676158Y-138206897D01*
X152670743Y-138218319D01*
X152663803Y-138228100D01*
X152640406Y-138257845D01*
X152474714Y-138257251D01*
X152439918Y-138256953D01*
X152341435Y-138253522D01*
X152260473Y-138245839D01*
X152193379Y-138233282D01*
X152136496Y-138215227D01*
X152086169Y-138191052D01*
X152082810Y-138189135D01*
X152024998Y-138152417D01*
X151982644Y-138115451D01*
X151949828Y-138071966D01*
X151920628Y-138015689D01*
X151916346Y-138006073D01*
X151893769Y-137942887D01*
X151888034Y-137897333D01*
X152037279Y-137897333D01*
X152042892Y-137922061D01*
X152048618Y-137937939D01*
X152081548Y-137997847D01*
X152128886Y-138043600D01*
X152192652Y-138076736D01*
X152274861Y-138098790D01*
X152277655Y-138099292D01*
X152323940Y-138105255D01*
X152380336Y-138109483D01*
X152435274Y-138111089D01*
X152529156Y-138111089D01*
X152529156Y-137670822D01*
X152441667Y-137671270D01*
X152374747Y-137673746D01*
X152282349Y-137684998D01*
X152203034Y-137704537D01*
X152141060Y-137731511D01*
X152110120Y-137752240D01*
X152082000Y-137782006D01*
X152058660Y-137824434D01*
X152051533Y-137840400D01*
X152039709Y-137872902D01*
X152037279Y-137897333D01*
X151888034Y-137897333D01*
X151886797Y-137887509D01*
X151895399Y-137832483D01*
X151919541Y-137770351D01*
X151920337Y-137768658D01*
X151960788Y-137699236D01*
X152011473Y-137642638D01*
X152074198Y-137598070D01*
X152150774Y-137564741D01*
X152243009Y-137541861D01*
X152352712Y-137528636D01*
X152481691Y-137524275D01*
X152485263Y-137524270D01*
X152545283Y-137524410D01*
X152587214Y-137525446D01*
X152615328Y-137528040D01*
X152633897Y-137532853D01*
X152647194Y-137540544D01*
X152659491Y-137551776D01*
X152687200Y-137579485D01*
X152687200Y-137888920D01*
X152687175Y-137950526D01*
X152686950Y-138029311D01*
X152686332Y-138090021D01*
X152685775Y-138111089D01*
X152685133Y-138135396D01*
G36*
X152685133Y-138135396D02*
G01*
X152683163Y-138168175D01*
X152680235Y-138191095D01*
X152676158Y-138206897D01*
X152670743Y-138218319D01*
X152663803Y-138228100D01*
X152640406Y-138257845D01*
X152474714Y-138257251D01*
X152439918Y-138256953D01*
X152341435Y-138253522D01*
X152260473Y-138245839D01*
X152193379Y-138233282D01*
X152136496Y-138215227D01*
X152086169Y-138191052D01*
X152082810Y-138189135D01*
X152024998Y-138152417D01*
X151982644Y-138115451D01*
X151949828Y-138071966D01*
X151920628Y-138015689D01*
X151916346Y-138006073D01*
X151893769Y-137942887D01*
X151888034Y-137897333D01*
X152037279Y-137897333D01*
X152042892Y-137922061D01*
X152048618Y-137937939D01*
X152081548Y-137997847D01*
X152128886Y-138043600D01*
X152192652Y-138076736D01*
X152274861Y-138098790D01*
X152277655Y-138099292D01*
X152323940Y-138105255D01*
X152380336Y-138109483D01*
X152435274Y-138111089D01*
X152529156Y-138111089D01*
X152529156Y-137670822D01*
X152441667Y-137671270D01*
X152374747Y-137673746D01*
X152282349Y-137684998D01*
X152203034Y-137704537D01*
X152141060Y-137731511D01*
X152110120Y-137752240D01*
X152082000Y-137782006D01*
X152058660Y-137824434D01*
X152051533Y-137840400D01*
X152039709Y-137872902D01*
X152037279Y-137897333D01*
X151888034Y-137897333D01*
X151886797Y-137887509D01*
X151895399Y-137832483D01*
X151919541Y-137770351D01*
X151920337Y-137768658D01*
X151960788Y-137699236D01*
X152011473Y-137642638D01*
X152074198Y-137598070D01*
X152150774Y-137564741D01*
X152243009Y-137541861D01*
X152352712Y-137528636D01*
X152481691Y-137524275D01*
X152485263Y-137524270D01*
X152545283Y-137524410D01*
X152587214Y-137525446D01*
X152615328Y-137528040D01*
X152633897Y-137532853D01*
X152647194Y-137540544D01*
X152659491Y-137551776D01*
X152687200Y-137579485D01*
X152687200Y-137888920D01*
X152687175Y-137950526D01*
X152686950Y-138029311D01*
X152686332Y-138090021D01*
X152685775Y-138111089D01*
X152685133Y-138135396D01*
G37*
X159776817Y-137709427D02*
X159776870Y-137790041D01*
X159776622Y-137890956D01*
X159776583Y-137966617D01*
X159776328Y-138044526D01*
X159775684Y-138104536D01*
X159774480Y-138149264D01*
X159772543Y-138181326D01*
X159769703Y-138203340D01*
X159765788Y-138217924D01*
X159760626Y-138227694D01*
X159754045Y-138235267D01*
X159747077Y-138241501D01*
X159734079Y-138248801D01*
X159714931Y-138253554D01*
X159685528Y-138256292D01*
X159641762Y-138257545D01*
X159579528Y-138257845D01*
X159530582Y-138257469D01*
X159423722Y-138253041D01*
X159334494Y-138242953D01*
X159259696Y-138226365D01*
X159196125Y-138202435D01*
X159140579Y-138170321D01*
X159089854Y-138129182D01*
X159083866Y-138123330D01*
X159046999Y-138074821D01*
X159015899Y-138014013D01*
X158994417Y-137949769D01*
X158989136Y-137911026D01*
X159136353Y-137911026D01*
X159154635Y-137961961D01*
X159184305Y-138007878D01*
X159231002Y-138050287D01*
X159292392Y-138080090D01*
X159371538Y-138099226D01*
X159373028Y-138099464D01*
X159421999Y-138105256D01*
X159480693Y-138109396D01*
X159536734Y-138111004D01*
X159629867Y-138111089D01*
X159629867Y-137670822D01*
X159553667Y-137670808D01*
X159550639Y-137670817D01*
X159499519Y-137672782D01*
X159439416Y-137677507D01*
X159382708Y-137684035D01*
X159332750Y-137693331D01*
X159257998Y-137719600D01*
X159200489Y-137758899D01*
X159158988Y-137811933D01*
X159137771Y-137863200D01*
X159136353Y-137911026D01*
X158989136Y-137911026D01*
X158986400Y-137890956D01*
X158987679Y-137869739D01*
X158999991Y-137812323D01*
X159022520Y-137752413D01*
X159051750Y-137698363D01*
X159084167Y-137658532D01*
X159103708Y-137641510D01*
X159158420Y-137602322D01*
X159218723Y-137572193D01*
X159287919Y-137550232D01*
X159369311Y-137535550D01*
X159466200Y-137527259D01*
X159581889Y-137524467D01*
X159621371Y-137524066D01*
X159667082Y-137523653D01*
X159702883Y-137525457D01*
X159729974Y-137531739D01*
X159749556Y-137544759D01*
X159762830Y-137566778D01*
X159770998Y-137600055D01*
X159775260Y-137646851D01*
X159775857Y-137670822D01*
X159776817Y-137709427D01*
G36*
X159776817Y-137709427D02*
G01*
X159776870Y-137790041D01*
X159776622Y-137890956D01*
X159776583Y-137966617D01*
X159776328Y-138044526D01*
X159775684Y-138104536D01*
X159774480Y-138149264D01*
X159772543Y-138181326D01*
X159769703Y-138203340D01*
X159765788Y-138217924D01*
X159760626Y-138227694D01*
X159754045Y-138235267D01*
X159747077Y-138241501D01*
X159734079Y-138248801D01*
X159714931Y-138253554D01*
X159685528Y-138256292D01*
X159641762Y-138257545D01*
X159579528Y-138257845D01*
X159530582Y-138257469D01*
X159423722Y-138253041D01*
X159334494Y-138242953D01*
X159259696Y-138226365D01*
X159196125Y-138202435D01*
X159140579Y-138170321D01*
X159089854Y-138129182D01*
X159083866Y-138123330D01*
X159046999Y-138074821D01*
X159015899Y-138014013D01*
X158994417Y-137949769D01*
X158989136Y-137911026D01*
X159136353Y-137911026D01*
X159154635Y-137961961D01*
X159184305Y-138007878D01*
X159231002Y-138050287D01*
X159292392Y-138080090D01*
X159371538Y-138099226D01*
X159373028Y-138099464D01*
X159421999Y-138105256D01*
X159480693Y-138109396D01*
X159536734Y-138111004D01*
X159629867Y-138111089D01*
X159629867Y-137670822D01*
X159553667Y-137670808D01*
X159550639Y-137670817D01*
X159499519Y-137672782D01*
X159439416Y-137677507D01*
X159382708Y-137684035D01*
X159332750Y-137693331D01*
X159257998Y-137719600D01*
X159200489Y-137758899D01*
X159158988Y-137811933D01*
X159137771Y-137863200D01*
X159136353Y-137911026D01*
X158989136Y-137911026D01*
X158986400Y-137890956D01*
X158987679Y-137869739D01*
X158999991Y-137812323D01*
X159022520Y-137752413D01*
X159051750Y-137698363D01*
X159084167Y-137658532D01*
X159103708Y-137641510D01*
X159158420Y-137602322D01*
X159218723Y-137572193D01*
X159287919Y-137550232D01*
X159369311Y-137535550D01*
X159466200Y-137527259D01*
X159581889Y-137524467D01*
X159621371Y-137524066D01*
X159667082Y-137523653D01*
X159702883Y-137525457D01*
X159729974Y-137531739D01*
X159749556Y-137544759D01*
X159762830Y-137566778D01*
X159770998Y-137600055D01*
X159775260Y-137646851D01*
X159775857Y-137670822D01*
X159776817Y-137709427D01*
G37*
X154831893Y-137522892D02*
X154843301Y-137529029D01*
X154853850Y-137539691D01*
X154865136Y-137553811D01*
X154869589Y-137559772D01*
X154875588Y-137570268D01*
X154880167Y-137584093D01*
X154883519Y-137603998D01*
X154885833Y-137632732D01*
X154887301Y-137673045D01*
X154888113Y-137727687D01*
X154888460Y-137799407D01*
X154888534Y-137890956D01*
X154888511Y-137949486D01*
X154888292Y-138028573D01*
X154887683Y-138089516D01*
X154886492Y-138135062D01*
X154884529Y-138167963D01*
X154881603Y-138190968D01*
X154877523Y-138206826D01*
X154872097Y-138218286D01*
X154865136Y-138228100D01*
X154834708Y-138252493D01*
X154799765Y-138255372D01*
X154762784Y-138236282D01*
X154758600Y-138232807D01*
X154750424Y-138224279D01*
X154744364Y-138212728D01*
X154739981Y-138194896D01*
X154736839Y-138167524D01*
X154734502Y-138127354D01*
X154732531Y-138071128D01*
X154730489Y-137995589D01*
X154724845Y-137776458D01*
X154459556Y-138017099D01*
X154385722Y-138083875D01*
X154320542Y-138141991D01*
X154268348Y-138186949D01*
X154227273Y-138219871D01*
X154195455Y-138241879D01*
X154171026Y-138254094D01*
X154152124Y-138257639D01*
X154136883Y-138253636D01*
X154123439Y-138243207D01*
X154109927Y-138227474D01*
X154103682Y-138218991D01*
X154098050Y-138208413D01*
X154093839Y-138194255D01*
X154090887Y-138173803D01*
X154089032Y-138144342D01*
X154088113Y-138103161D01*
X154087968Y-138047544D01*
X154088435Y-137974779D01*
X154089352Y-137882151D01*
X154092667Y-137567199D01*
X154119318Y-137545633D01*
X154145383Y-137529441D01*
X154178241Y-137526670D01*
X154212772Y-137545623D01*
X154217084Y-137549208D01*
X154225216Y-137557737D01*
X154231245Y-137569329D01*
X154235606Y-137587235D01*
X154238734Y-137614706D01*
X154241063Y-137654994D01*
X154243029Y-137711351D01*
X154245067Y-137787029D01*
X154250711Y-138006878D01*
X154431334Y-137843084D01*
X154518072Y-137764451D01*
X154593843Y-137696058D01*
X154655980Y-137640708D01*
X154706078Y-137597338D01*
X154745735Y-137564881D01*
X154776548Y-137542273D01*
X154800114Y-137528448D01*
X154818030Y-137522343D01*
X154831893Y-137522892D01*
G36*
X154831893Y-137522892D02*
G01*
X154843301Y-137529029D01*
X154853850Y-137539691D01*
X154865136Y-137553811D01*
X154869589Y-137559772D01*
X154875588Y-137570268D01*
X154880167Y-137584093D01*
X154883519Y-137603998D01*
X154885833Y-137632732D01*
X154887301Y-137673045D01*
X154888113Y-137727687D01*
X154888460Y-137799407D01*
X154888534Y-137890956D01*
X154888511Y-137949486D01*
X154888292Y-138028573D01*
X154887683Y-138089516D01*
X154886492Y-138135062D01*
X154884529Y-138167963D01*
X154881603Y-138190968D01*
X154877523Y-138206826D01*
X154872097Y-138218286D01*
X154865136Y-138228100D01*
X154834708Y-138252493D01*
X154799765Y-138255372D01*
X154762784Y-138236282D01*
X154758600Y-138232807D01*
X154750424Y-138224279D01*
X154744364Y-138212728D01*
X154739981Y-138194896D01*
X154736839Y-138167524D01*
X154734502Y-138127354D01*
X154732531Y-138071128D01*
X154730489Y-137995589D01*
X154724845Y-137776458D01*
X154459556Y-138017099D01*
X154385722Y-138083875D01*
X154320542Y-138141991D01*
X154268348Y-138186949D01*
X154227273Y-138219871D01*
X154195455Y-138241879D01*
X154171026Y-138254094D01*
X154152124Y-138257639D01*
X154136883Y-138253636D01*
X154123439Y-138243207D01*
X154109927Y-138227474D01*
X154103682Y-138218991D01*
X154098050Y-138208413D01*
X154093839Y-138194255D01*
X154090887Y-138173803D01*
X154089032Y-138144342D01*
X154088113Y-138103161D01*
X154087968Y-138047544D01*
X154088435Y-137974779D01*
X154089352Y-137882151D01*
X154092667Y-137567199D01*
X154119318Y-137545633D01*
X154145383Y-137529441D01*
X154178241Y-137526670D01*
X154212772Y-137545623D01*
X154217084Y-137549208D01*
X154225216Y-137557737D01*
X154231245Y-137569329D01*
X154235606Y-137587235D01*
X154238734Y-137614706D01*
X154241063Y-137654994D01*
X154243029Y-137711351D01*
X154245067Y-137787029D01*
X154250711Y-138006878D01*
X154431334Y-137843084D01*
X154518072Y-137764451D01*
X154593843Y-137696058D01*
X154655980Y-137640708D01*
X154706078Y-137597338D01*
X154745735Y-137564881D01*
X154776548Y-137542273D01*
X154800114Y-137528448D01*
X154818030Y-137522343D01*
X154831893Y-137522892D01*
G37*
X155629150Y-137529179D02*
X155735157Y-137545494D01*
X155828969Y-137573545D01*
X155907765Y-137612452D01*
X155968719Y-137661334D01*
X155994789Y-137694195D01*
X156024297Y-137743394D01*
X156049568Y-137797252D01*
X156067218Y-137848419D01*
X156073858Y-137889544D01*
X156072298Y-137909259D01*
X156059357Y-137960592D01*
X156036194Y-138017118D01*
X156006302Y-138071035D01*
X155973173Y-138114539D01*
X155962977Y-138124887D01*
X155895892Y-138176662D01*
X155815766Y-138216554D01*
X155729556Y-138240956D01*
X155674592Y-138249068D01*
X155581139Y-138255673D01*
X155491358Y-138253586D01*
X155408869Y-138243340D01*
X155337286Y-138225470D01*
X155280228Y-138200508D01*
X155241311Y-138168988D01*
X155239936Y-138167012D01*
X155232848Y-138141786D01*
X155228609Y-138094535D01*
X155227200Y-138025071D01*
X155228060Y-137962838D01*
X155232780Y-137915456D01*
X155244470Y-137883353D01*
X155266239Y-137863800D01*
X155301198Y-137854070D01*
X155352456Y-137851433D01*
X155423123Y-137853161D01*
X155471743Y-137856173D01*
X155521939Y-137864366D01*
X155554433Y-137878419D01*
X155571892Y-137899654D01*
X155576983Y-137929394D01*
X155576877Y-137933936D01*
X155568175Y-137968730D01*
X155544165Y-137992147D01*
X155502900Y-138005347D01*
X155442431Y-138009489D01*
X155373956Y-138009489D01*
X155373956Y-138047841D01*
X155374006Y-138056976D01*
X155376227Y-138074227D01*
X155385494Y-138084521D01*
X155406875Y-138091459D01*
X155445436Y-138098641D01*
X155450910Y-138099575D01*
X155547860Y-138109478D01*
X155637852Y-138106559D01*
X155718760Y-138091829D01*
X155788459Y-138066299D01*
X155844824Y-138030978D01*
X155885729Y-137986879D01*
X155909051Y-137935012D01*
X155912663Y-137876388D01*
X155907145Y-137847494D01*
X155880461Y-137791604D01*
X155834273Y-137745945D01*
X155769291Y-137711108D01*
X155686229Y-137687690D01*
X155661555Y-137683241D01*
X155572226Y-137672742D01*
X155492419Y-137673971D01*
X155414326Y-137686906D01*
X155379183Y-137693696D01*
X155333745Y-137694713D01*
X155302430Y-137682182D01*
X155282277Y-137655395D01*
X155275893Y-137627148D01*
X155285379Y-137595924D01*
X155294708Y-137582499D01*
X155328943Y-137558967D01*
X155381565Y-137541095D01*
X155450081Y-137529599D01*
X155532000Y-137525192D01*
X155629150Y-137529179D01*
G36*
X155629150Y-137529179D02*
G01*
X155735157Y-137545494D01*
X155828969Y-137573545D01*
X155907765Y-137612452D01*
X155968719Y-137661334D01*
X155994789Y-137694195D01*
X156024297Y-137743394D01*
X156049568Y-137797252D01*
X156067218Y-137848419D01*
X156073858Y-137889544D01*
X156072298Y-137909259D01*
X156059357Y-137960592D01*
X156036194Y-138017118D01*
X156006302Y-138071035D01*
X155973173Y-138114539D01*
X155962977Y-138124887D01*
X155895892Y-138176662D01*
X155815766Y-138216554D01*
X155729556Y-138240956D01*
X155674592Y-138249068D01*
X155581139Y-138255673D01*
X155491358Y-138253586D01*
X155408869Y-138243340D01*
X155337286Y-138225470D01*
X155280228Y-138200508D01*
X155241311Y-138168988D01*
X155239936Y-138167012D01*
X155232848Y-138141786D01*
X155228609Y-138094535D01*
X155227200Y-138025071D01*
X155228060Y-137962838D01*
X155232780Y-137915456D01*
X155244470Y-137883353D01*
X155266239Y-137863800D01*
X155301198Y-137854070D01*
X155352456Y-137851433D01*
X155423123Y-137853161D01*
X155471743Y-137856173D01*
X155521939Y-137864366D01*
X155554433Y-137878419D01*
X155571892Y-137899654D01*
X155576983Y-137929394D01*
X155576877Y-137933936D01*
X155568175Y-137968730D01*
X155544165Y-137992147D01*
X155502900Y-138005347D01*
X155442431Y-138009489D01*
X155373956Y-138009489D01*
X155373956Y-138047841D01*
X155374006Y-138056976D01*
X155376227Y-138074227D01*
X155385494Y-138084521D01*
X155406875Y-138091459D01*
X155445436Y-138098641D01*
X155450910Y-138099575D01*
X155547860Y-138109478D01*
X155637852Y-138106559D01*
X155718760Y-138091829D01*
X155788459Y-138066299D01*
X155844824Y-138030978D01*
X155885729Y-137986879D01*
X155909051Y-137935012D01*
X155912663Y-137876388D01*
X155907145Y-137847494D01*
X155880461Y-137791604D01*
X155834273Y-137745945D01*
X155769291Y-137711108D01*
X155686229Y-137687690D01*
X155661555Y-137683241D01*
X155572226Y-137672742D01*
X155492419Y-137673971D01*
X155414326Y-137686906D01*
X155379183Y-137693696D01*
X155333745Y-137694713D01*
X155302430Y-137682182D01*
X155282277Y-137655395D01*
X155275893Y-137627148D01*
X155285379Y-137595924D01*
X155294708Y-137582499D01*
X155328943Y-137558967D01*
X155381565Y-137541095D01*
X155450081Y-137529599D01*
X155532000Y-137525192D01*
X155629150Y-137529179D01*
G37*
X153679803Y-137553811D02*
X153684752Y-137560495D01*
X153690596Y-137571066D01*
X153695057Y-137585153D01*
X153698321Y-137605478D01*
X153700574Y-137634765D01*
X153702002Y-137675737D01*
X153702792Y-137731117D01*
X153703129Y-137803628D01*
X153703200Y-137895994D01*
X153703171Y-137961911D01*
X153702939Y-138040228D01*
X153702319Y-138100496D01*
X153701126Y-138145393D01*
X153699179Y-138177602D01*
X153696294Y-138199800D01*
X153692288Y-138214669D01*
X153686979Y-138224889D01*
X153680183Y-138233138D01*
X153675668Y-138237795D01*
X153667438Y-138244282D01*
X153656078Y-138249194D01*
X153638810Y-138252749D01*
X153612855Y-138255167D01*
X153575436Y-138256667D01*
X153523773Y-138257467D01*
X153455089Y-138257787D01*
X153366606Y-138257845D01*
X153346931Y-138257838D01*
X153259906Y-138257572D01*
X153192254Y-138256806D01*
X153141299Y-138255392D01*
X153104367Y-138253180D01*
X153078783Y-138250022D01*
X153061871Y-138245769D01*
X153050957Y-138240271D01*
X153040464Y-138230285D01*
X153027203Y-138199168D01*
X153028386Y-138163280D01*
X153044550Y-138131733D01*
X153046739Y-138129457D01*
X153055427Y-138123189D01*
X153068769Y-138118523D01*
X153089752Y-138115227D01*
X153121363Y-138113068D01*
X153166590Y-138111814D01*
X153228420Y-138111231D01*
X153309839Y-138111089D01*
X153556445Y-138111089D01*
X153556445Y-137953045D01*
X153394006Y-137953045D01*
X153358338Y-137952964D01*
X153302568Y-137952167D01*
X153263430Y-137950162D01*
X153236976Y-137946521D01*
X153219259Y-137940812D01*
X153206329Y-137932607D01*
X153202686Y-137929423D01*
X153184278Y-137898448D01*
X153183644Y-137862112D01*
X153201183Y-137828493D01*
X153201245Y-137828424D01*
X153210916Y-137819798D01*
X153224209Y-137813742D01*
X153244917Y-137809811D01*
X153276828Y-137807556D01*
X153323734Y-137806531D01*
X153389424Y-137806289D01*
X153557571Y-137806289D01*
X153554186Y-137741378D01*
X153550800Y-137676467D01*
X153308723Y-137673414D01*
X153283707Y-137673086D01*
X153202087Y-137671606D01*
X153139768Y-137669222D01*
X153094154Y-137665227D01*
X153062652Y-137658913D01*
X153042667Y-137649574D01*
X153031604Y-137636503D01*
X153026869Y-137618992D01*
X153025867Y-137596335D01*
X153025873Y-137593970D01*
X153027027Y-137573939D01*
X153031824Y-137558146D01*
X153042632Y-137546090D01*
X153061817Y-137537267D01*
X153091745Y-137531175D01*
X153134783Y-137527311D01*
X153193299Y-137525174D01*
X153269657Y-137524260D01*
X153366226Y-137524067D01*
X153656406Y-137524067D01*
X153679803Y-137553811D01*
G36*
X153679803Y-137553811D02*
G01*
X153684752Y-137560495D01*
X153690596Y-137571066D01*
X153695057Y-137585153D01*
X153698321Y-137605478D01*
X153700574Y-137634765D01*
X153702002Y-137675737D01*
X153702792Y-137731117D01*
X153703129Y-137803628D01*
X153703200Y-137895994D01*
X153703171Y-137961911D01*
X153702939Y-138040228D01*
X153702319Y-138100496D01*
X153701126Y-138145393D01*
X153699179Y-138177602D01*
X153696294Y-138199800D01*
X153692288Y-138214669D01*
X153686979Y-138224889D01*
X153680183Y-138233138D01*
X153675668Y-138237795D01*
X153667438Y-138244282D01*
X153656078Y-138249194D01*
X153638810Y-138252749D01*
X153612855Y-138255167D01*
X153575436Y-138256667D01*
X153523773Y-138257467D01*
X153455089Y-138257787D01*
X153366606Y-138257845D01*
X153346931Y-138257838D01*
X153259906Y-138257572D01*
X153192254Y-138256806D01*
X153141299Y-138255392D01*
X153104367Y-138253180D01*
X153078783Y-138250022D01*
X153061871Y-138245769D01*
X153050957Y-138240271D01*
X153040464Y-138230285D01*
X153027203Y-138199168D01*
X153028386Y-138163280D01*
X153044550Y-138131733D01*
X153046739Y-138129457D01*
X153055427Y-138123189D01*
X153068769Y-138118523D01*
X153089752Y-138115227D01*
X153121363Y-138113068D01*
X153166590Y-138111814D01*
X153228420Y-138111231D01*
X153309839Y-138111089D01*
X153556445Y-138111089D01*
X153556445Y-137953045D01*
X153394006Y-137953045D01*
X153358338Y-137952964D01*
X153302568Y-137952167D01*
X153263430Y-137950162D01*
X153236976Y-137946521D01*
X153219259Y-137940812D01*
X153206329Y-137932607D01*
X153202686Y-137929423D01*
X153184278Y-137898448D01*
X153183644Y-137862112D01*
X153201183Y-137828493D01*
X153201245Y-137828424D01*
X153210916Y-137819798D01*
X153224209Y-137813742D01*
X153244917Y-137809811D01*
X153276828Y-137807556D01*
X153323734Y-137806531D01*
X153389424Y-137806289D01*
X153557571Y-137806289D01*
X153554186Y-137741378D01*
X153550800Y-137676467D01*
X153308723Y-137673414D01*
X153283707Y-137673086D01*
X153202087Y-137671606D01*
X153139768Y-137669222D01*
X153094154Y-137665227D01*
X153062652Y-137658913D01*
X153042667Y-137649574D01*
X153031604Y-137636503D01*
X153026869Y-137618992D01*
X153025867Y-137596335D01*
X153025873Y-137593970D01*
X153027027Y-137573939D01*
X153031824Y-137558146D01*
X153042632Y-137546090D01*
X153061817Y-137537267D01*
X153091745Y-137531175D01*
X153134783Y-137527311D01*
X153193299Y-137525174D01*
X153269657Y-137524260D01*
X153366226Y-137524067D01*
X153656406Y-137524067D01*
X153679803Y-137553811D01*
G37*
X158356734Y-137524083D02*
X158433831Y-137524275D01*
X158492777Y-137524860D01*
X158536364Y-137526051D01*
X158567383Y-137528064D01*
X158588625Y-137531112D01*
X158602882Y-137535409D01*
X158612945Y-137541172D01*
X158621606Y-137548612D01*
X158623391Y-137550293D01*
X158630635Y-137557832D01*
X158636277Y-137566850D01*
X158640517Y-137579984D01*
X158643556Y-137599872D01*
X158645594Y-137629151D01*
X158646830Y-137670458D01*
X158647465Y-137726431D01*
X158647700Y-137799707D01*
X158647734Y-137892923D01*
X158647697Y-137965713D01*
X158647448Y-138043889D01*
X158646812Y-138104103D01*
X158645615Y-138148982D01*
X158643684Y-138181152D01*
X158640846Y-138203239D01*
X158636927Y-138217870D01*
X158631755Y-138227670D01*
X158625156Y-138235267D01*
X158621822Y-138238444D01*
X158613300Y-138244554D01*
X158601298Y-138249229D01*
X158583087Y-138252659D01*
X158555940Y-138255036D01*
X158517129Y-138256552D01*
X158463924Y-138257398D01*
X158393598Y-138257765D01*
X158303422Y-138257845D01*
X158261314Y-138257833D01*
X158180167Y-138257651D01*
X158117675Y-138257098D01*
X158071109Y-138255982D01*
X158037741Y-138254113D01*
X158014844Y-138251298D01*
X157999688Y-138247346D01*
X157989546Y-138242066D01*
X157981689Y-138235267D01*
X157966963Y-138213667D01*
X157959111Y-138184467D01*
X157964610Y-138160560D01*
X157981689Y-138133667D01*
X157986668Y-138129059D01*
X157996443Y-138122772D01*
X158010559Y-138118146D01*
X158032054Y-138114930D01*
X158063968Y-138112870D01*
X158109342Y-138111712D01*
X158171213Y-138111202D01*
X158252622Y-138111089D01*
X158500978Y-138111089D01*
X158500978Y-137953045D01*
X158339801Y-137953045D01*
X158303983Y-137952899D01*
X158238359Y-137951176D01*
X158191118Y-137946741D01*
X158159383Y-137938637D01*
X158140277Y-137925906D01*
X158130923Y-137907592D01*
X158128445Y-137882738D01*
X158129242Y-137862482D01*
X158134494Y-137840656D01*
X158147288Y-137825304D01*
X158170628Y-137815309D01*
X158207517Y-137809553D01*
X158260959Y-137806919D01*
X158333958Y-137806289D01*
X158502105Y-137806289D01*
X158498719Y-137741378D01*
X158495334Y-137676467D01*
X158247617Y-137673418D01*
X158185026Y-137672539D01*
X158116565Y-137671095D01*
X158065661Y-137669164D01*
X158029408Y-137666514D01*
X158004901Y-137662910D01*
X157989235Y-137658121D01*
X157979506Y-137651913D01*
X157973491Y-137645510D01*
X157960482Y-137613828D01*
X157964043Y-137578142D01*
X157983818Y-137547084D01*
X157987069Y-137544161D01*
X157996049Y-137537810D01*
X158008153Y-137532957D01*
X158026159Y-137529403D01*
X158052847Y-137526946D01*
X158090997Y-137525385D01*
X158143386Y-137524518D01*
X158212794Y-137524146D01*
X158302001Y-137524067D01*
X158356734Y-137524083D01*
G36*
X158356734Y-137524083D02*
G01*
X158433831Y-137524275D01*
X158492777Y-137524860D01*
X158536364Y-137526051D01*
X158567383Y-137528064D01*
X158588625Y-137531112D01*
X158602882Y-137535409D01*
X158612945Y-137541172D01*
X158621606Y-137548612D01*
X158623391Y-137550293D01*
X158630635Y-137557832D01*
X158636277Y-137566850D01*
X158640517Y-137579984D01*
X158643556Y-137599872D01*
X158645594Y-137629151D01*
X158646830Y-137670458D01*
X158647465Y-137726431D01*
X158647700Y-137799707D01*
X158647734Y-137892923D01*
X158647697Y-137965713D01*
X158647448Y-138043889D01*
X158646812Y-138104103D01*
X158645615Y-138148982D01*
X158643684Y-138181152D01*
X158640846Y-138203239D01*
X158636927Y-138217870D01*
X158631755Y-138227670D01*
X158625156Y-138235267D01*
X158621822Y-138238444D01*
X158613300Y-138244554D01*
X158601298Y-138249229D01*
X158583087Y-138252659D01*
X158555940Y-138255036D01*
X158517129Y-138256552D01*
X158463924Y-138257398D01*
X158393598Y-138257765D01*
X158303422Y-138257845D01*
X158261314Y-138257833D01*
X158180167Y-138257651D01*
X158117675Y-138257098D01*
X158071109Y-138255982D01*
X158037741Y-138254113D01*
X158014844Y-138251298D01*
X157999688Y-138247346D01*
X157989546Y-138242066D01*
X157981689Y-138235267D01*
X157966963Y-138213667D01*
X157959111Y-138184467D01*
X157964610Y-138160560D01*
X157981689Y-138133667D01*
X157986668Y-138129059D01*
X157996443Y-138122772D01*
X158010559Y-138118146D01*
X158032054Y-138114930D01*
X158063968Y-138112870D01*
X158109342Y-138111712D01*
X158171213Y-138111202D01*
X158252622Y-138111089D01*
X158500978Y-138111089D01*
X158500978Y-137953045D01*
X158339801Y-137953045D01*
X158303983Y-137952899D01*
X158238359Y-137951176D01*
X158191118Y-137946741D01*
X158159383Y-137938637D01*
X158140277Y-137925906D01*
X158130923Y-137907592D01*
X158128445Y-137882738D01*
X158129242Y-137862482D01*
X158134494Y-137840656D01*
X158147288Y-137825304D01*
X158170628Y-137815309D01*
X158207517Y-137809553D01*
X158260959Y-137806919D01*
X158333958Y-137806289D01*
X158502105Y-137806289D01*
X158498719Y-137741378D01*
X158495334Y-137676467D01*
X158247617Y-137673418D01*
X158185026Y-137672539D01*
X158116565Y-137671095D01*
X158065661Y-137669164D01*
X158029408Y-137666514D01*
X158004901Y-137662910D01*
X157989235Y-137658121D01*
X157979506Y-137651913D01*
X157973491Y-137645510D01*
X157960482Y-137613828D01*
X157964043Y-137578142D01*
X157983818Y-137547084D01*
X157987069Y-137544161D01*
X157996049Y-137537810D01*
X158008153Y-137532957D01*
X158026159Y-137529403D01*
X158052847Y-137526946D01*
X158090997Y-137525385D01*
X158143386Y-137524518D01*
X158212794Y-137524146D01*
X158302001Y-137524067D01*
X158356734Y-137524083D01*
G37*
X149789702Y-137533478D02*
X149807663Y-137551989D01*
X149828263Y-137583071D01*
X149853095Y-137628756D01*
X149883750Y-137691078D01*
X149921820Y-137772071D01*
X149936454Y-137803454D01*
X149966203Y-137866638D01*
X149992297Y-137921244D01*
X150013292Y-137964290D01*
X150027739Y-137992793D01*
X150034191Y-138003770D01*
X150035550Y-138003189D01*
X150045542Y-137989242D01*
X150062833Y-137959704D01*
X150085430Y-137918087D01*
X150111338Y-137867903D01*
X150127311Y-137836414D01*
X150156261Y-137781061D01*
X150178749Y-137742044D01*
X150196965Y-137716566D01*
X150213096Y-137701831D01*
X150229330Y-137695042D01*
X150247857Y-137693400D01*
X150258360Y-137693875D01*
X150274476Y-137698082D01*
X150289790Y-137708946D01*
X150306388Y-137729219D01*
X150326357Y-137761654D01*
X150351783Y-137809004D01*
X150384752Y-137874022D01*
X150394485Y-137893277D01*
X150418943Y-137939946D01*
X150439178Y-137976109D01*
X150453311Y-137998497D01*
X150459460Y-138003845D01*
X150460827Y-138000573D01*
X150470202Y-137979664D01*
X150487062Y-137942725D01*
X150509979Y-137892874D01*
X150537520Y-137833226D01*
X150568255Y-137766898D01*
X150594970Y-137709677D01*
X150624593Y-137647688D01*
X150647664Y-137601949D01*
X150665643Y-137569908D01*
X150679990Y-137549014D01*
X150692166Y-137536718D01*
X150703632Y-137530466D01*
X150713042Y-137527574D01*
X150738147Y-137527425D01*
X150765290Y-137542768D01*
X150766590Y-137543753D01*
X150788674Y-137566388D01*
X150799723Y-137588613D01*
X150799769Y-137589253D01*
X150795228Y-137606915D01*
X150782364Y-137641481D01*
X150762605Y-137689826D01*
X150737381Y-137748825D01*
X150708119Y-137815355D01*
X150676250Y-137886291D01*
X150643201Y-137958507D01*
X150610401Y-138028880D01*
X150579280Y-138094285D01*
X150551265Y-138151597D01*
X150527786Y-138197692D01*
X150510272Y-138229446D01*
X150500151Y-138243733D01*
X150465743Y-138257102D01*
X150424046Y-138250741D01*
X150418681Y-138246044D01*
X150402852Y-138223893D01*
X150380650Y-138187132D01*
X150354233Y-138139415D01*
X150325760Y-138084393D01*
X150245986Y-137925150D01*
X150172799Y-138071742D01*
X150163103Y-138091032D01*
X150136125Y-138143380D01*
X150112096Y-138188170D01*
X150093332Y-138221154D01*
X150082146Y-138238089D01*
X150081000Y-138239332D01*
X150052879Y-138254619D01*
X150017817Y-138256302D01*
X149986776Y-138243733D01*
X149984350Y-138240884D01*
X149972090Y-138220259D01*
X149952352Y-138182708D01*
X149926448Y-138130880D01*
X149895685Y-138067423D01*
X149861375Y-137994985D01*
X149824825Y-137916216D01*
X149804585Y-137872093D01*
X149767812Y-137791365D01*
X149739355Y-137727687D01*
X149718331Y-137678752D01*
X149703854Y-137642257D01*
X149695039Y-137615895D01*
X149691004Y-137597361D01*
X149690862Y-137584352D01*
X149693730Y-137574561D01*
X149708387Y-137553678D01*
X149734990Y-137533377D01*
X149735745Y-137533035D01*
X149755335Y-137526034D01*
X149772790Y-137525504D01*
X149789702Y-137533478D01*
G36*
X149789702Y-137533478D02*
G01*
X149807663Y-137551989D01*
X149828263Y-137583071D01*
X149853095Y-137628756D01*
X149883750Y-137691078D01*
X149921820Y-137772071D01*
X149936454Y-137803454D01*
X149966203Y-137866638D01*
X149992297Y-137921244D01*
X150013292Y-137964290D01*
X150027739Y-137992793D01*
X150034191Y-138003770D01*
X150035550Y-138003189D01*
X150045542Y-137989242D01*
X150062833Y-137959704D01*
X150085430Y-137918087D01*
X150111338Y-137867903D01*
X150127311Y-137836414D01*
X150156261Y-137781061D01*
X150178749Y-137742044D01*
X150196965Y-137716566D01*
X150213096Y-137701831D01*
X150229330Y-137695042D01*
X150247857Y-137693400D01*
X150258360Y-137693875D01*
X150274476Y-137698082D01*
X150289790Y-137708946D01*
X150306388Y-137729219D01*
X150326357Y-137761654D01*
X150351783Y-137809004D01*
X150384752Y-137874022D01*
X150394485Y-137893277D01*
X150418943Y-137939946D01*
X150439178Y-137976109D01*
X150453311Y-137998497D01*
X150459460Y-138003845D01*
X150460827Y-138000573D01*
X150470202Y-137979664D01*
X150487062Y-137942725D01*
X150509979Y-137892874D01*
X150537520Y-137833226D01*
X150568255Y-137766898D01*
X150594970Y-137709677D01*
X150624593Y-137647688D01*
X150647664Y-137601949D01*
X150665643Y-137569908D01*
X150679990Y-137549014D01*
X150692166Y-137536718D01*
X150703632Y-137530466D01*
X150713042Y-137527574D01*
X150738147Y-137527425D01*
X150765290Y-137542768D01*
X150766590Y-137543753D01*
X150788674Y-137566388D01*
X150799723Y-137588613D01*
X150799769Y-137589253D01*
X150795228Y-137606915D01*
X150782364Y-137641481D01*
X150762605Y-137689826D01*
X150737381Y-137748825D01*
X150708119Y-137815355D01*
X150676250Y-137886291D01*
X150643201Y-137958507D01*
X150610401Y-138028880D01*
X150579280Y-138094285D01*
X150551265Y-138151597D01*
X150527786Y-138197692D01*
X150510272Y-138229446D01*
X150500151Y-138243733D01*
X150465743Y-138257102D01*
X150424046Y-138250741D01*
X150418681Y-138246044D01*
X150402852Y-138223893D01*
X150380650Y-138187132D01*
X150354233Y-138139415D01*
X150325760Y-138084393D01*
X150245986Y-137925150D01*
X150172799Y-138071742D01*
X150163103Y-138091032D01*
X150136125Y-138143380D01*
X150112096Y-138188170D01*
X150093332Y-138221154D01*
X150082146Y-138238089D01*
X150081000Y-138239332D01*
X150052879Y-138254619D01*
X150017817Y-138256302D01*
X149986776Y-138243733D01*
X149984350Y-138240884D01*
X149972090Y-138220259D01*
X149952352Y-138182708D01*
X149926448Y-138130880D01*
X149895685Y-138067423D01*
X149861375Y-137994985D01*
X149824825Y-137916216D01*
X149804585Y-137872093D01*
X149767812Y-137791365D01*
X149739355Y-137727687D01*
X149718331Y-137678752D01*
X149703854Y-137642257D01*
X149695039Y-137615895D01*
X149691004Y-137597361D01*
X149690862Y-137584352D01*
X149693730Y-137574561D01*
X149708387Y-137553678D01*
X149734990Y-137533377D01*
X149735745Y-137533035D01*
X149755335Y-137526034D01*
X149772790Y-137525504D01*
X149789702Y-137533478D01*
G37*
X157340853Y-137524936D02*
X157407100Y-137530366D01*
X157462400Y-137539964D01*
X157513283Y-137554825D01*
X157584595Y-137587958D01*
X157635752Y-137630640D01*
X157666575Y-137682705D01*
X157676889Y-137743983D01*
X157675952Y-137775232D01*
X157670160Y-137800029D01*
X157655353Y-137821699D01*
X157627380Y-137849049D01*
X157619402Y-137856378D01*
X157595692Y-137877281D01*
X157573298Y-137894251D01*
X157549265Y-137908205D01*
X157520637Y-137920056D01*
X157484460Y-137930720D01*
X157437780Y-137941111D01*
X157377641Y-137952146D01*
X157301090Y-137964738D01*
X157205171Y-137979804D01*
X157186808Y-137982838D01*
X157124478Y-137996458D01*
X157079260Y-138012192D01*
X157052976Y-138029263D01*
X157047447Y-138046897D01*
X157050068Y-138051168D01*
X157068000Y-138066233D01*
X157096126Y-138082867D01*
X157108926Y-138088857D01*
X157130224Y-138096050D01*
X157156610Y-138100827D01*
X157192454Y-138103646D01*
X157242128Y-138104964D01*
X157310000Y-138105237D01*
X157327785Y-138105164D01*
X157395406Y-138104053D01*
X157460345Y-138101828D01*
X157515970Y-138098762D01*
X157555651Y-138095127D01*
X157591162Y-138091059D01*
X157620415Y-138090276D01*
X157639315Y-138094876D01*
X157654429Y-138105551D01*
X157658085Y-138109144D01*
X157674427Y-138140918D01*
X157673107Y-138176572D01*
X157654150Y-138207190D01*
X157633780Y-138218796D01*
X157597796Y-138231491D01*
X157555372Y-138241541D01*
X157551922Y-138242140D01*
X157509252Y-138247356D01*
X157451866Y-138251730D01*
X157386849Y-138254818D01*
X157321289Y-138256177D01*
X157305057Y-138256218D01*
X157206744Y-138253741D01*
X157126692Y-138245735D01*
X157061513Y-138231203D01*
X157007817Y-138209149D01*
X156962216Y-138178576D01*
X156921323Y-138138486D01*
X156901202Y-138112259D01*
X156889576Y-138082712D01*
X156886667Y-138042995D01*
X156886808Y-138031026D01*
X156890681Y-137998345D01*
X156903065Y-137971819D01*
X156928230Y-137940971D01*
X156949442Y-137918831D01*
X156975838Y-137896285D01*
X157005555Y-137877917D01*
X157041785Y-137862661D01*
X157087717Y-137849449D01*
X157146544Y-137837214D01*
X157221456Y-137824889D01*
X157315645Y-137811406D01*
X157360957Y-137804396D01*
X157428911Y-137789837D01*
X157478047Y-137773337D01*
X157507614Y-137755439D01*
X157516864Y-137736685D01*
X157505048Y-137717615D01*
X157471416Y-137698771D01*
X157468370Y-137697557D01*
X157422011Y-137685479D01*
X157359361Y-137677279D01*
X157285927Y-137673119D01*
X157207217Y-137673161D01*
X157128739Y-137677569D01*
X157056000Y-137686505D01*
X157052073Y-137687154D01*
X157003257Y-137694861D01*
X156971005Y-137698473D01*
X156950008Y-137697876D01*
X156934954Y-137692954D01*
X156920534Y-137683596D01*
X156919364Y-137682725D01*
X156894847Y-137652351D01*
X156890054Y-137616850D01*
X156905860Y-137582269D01*
X156910406Y-137577813D01*
X156940020Y-137562673D01*
X156987002Y-137549550D01*
X157047306Y-137538750D01*
X157116888Y-137530581D01*
X157191703Y-137525351D01*
X157267706Y-137523367D01*
X157340853Y-137524936D01*
G36*
X157340853Y-137524936D02*
G01*
X157407100Y-137530366D01*
X157462400Y-137539964D01*
X157513283Y-137554825D01*
X157584595Y-137587958D01*
X157635752Y-137630640D01*
X157666575Y-137682705D01*
X157676889Y-137743983D01*
X157675952Y-137775232D01*
X157670160Y-137800029D01*
X157655353Y-137821699D01*
X157627380Y-137849049D01*
X157619402Y-137856378D01*
X157595692Y-137877281D01*
X157573298Y-137894251D01*
X157549265Y-137908205D01*
X157520637Y-137920056D01*
X157484460Y-137930720D01*
X157437780Y-137941111D01*
X157377641Y-137952146D01*
X157301090Y-137964738D01*
X157205171Y-137979804D01*
X157186808Y-137982838D01*
X157124478Y-137996458D01*
X157079260Y-138012192D01*
X157052976Y-138029263D01*
X157047447Y-138046897D01*
X157050068Y-138051168D01*
X157068000Y-138066233D01*
X157096126Y-138082867D01*
X157108926Y-138088857D01*
X157130224Y-138096050D01*
X157156610Y-138100827D01*
X157192454Y-138103646D01*
X157242128Y-138104964D01*
X157310000Y-138105237D01*
X157327785Y-138105164D01*
X157395406Y-138104053D01*
X157460345Y-138101828D01*
X157515970Y-138098762D01*
X157555651Y-138095127D01*
X157591162Y-138091059D01*
X157620415Y-138090276D01*
X157639315Y-138094876D01*
X157654429Y-138105551D01*
X157658085Y-138109144D01*
X157674427Y-138140918D01*
X157673107Y-138176572D01*
X157654150Y-138207190D01*
X157633780Y-138218796D01*
X157597796Y-138231491D01*
X157555372Y-138241541D01*
X157551922Y-138242140D01*
X157509252Y-138247356D01*
X157451866Y-138251730D01*
X157386849Y-138254818D01*
X157321289Y-138256177D01*
X157305057Y-138256218D01*
X157206744Y-138253741D01*
X157126692Y-138245735D01*
X157061513Y-138231203D01*
X157007817Y-138209149D01*
X156962216Y-138178576D01*
X156921323Y-138138486D01*
X156901202Y-138112259D01*
X156889576Y-138082712D01*
X156886667Y-138042995D01*
X156886808Y-138031026D01*
X156890681Y-137998345D01*
X156903065Y-137971819D01*
X156928230Y-137940971D01*
X156949442Y-137918831D01*
X156975838Y-137896285D01*
X157005555Y-137877917D01*
X157041785Y-137862661D01*
X157087717Y-137849449D01*
X157146544Y-137837214D01*
X157221456Y-137824889D01*
X157315645Y-137811406D01*
X157360957Y-137804396D01*
X157428911Y-137789837D01*
X157478047Y-137773337D01*
X157507614Y-137755439D01*
X157516864Y-137736685D01*
X157505048Y-137717615D01*
X157471416Y-137698771D01*
X157468370Y-137697557D01*
X157422011Y-137685479D01*
X157359361Y-137677279D01*
X157285927Y-137673119D01*
X157207217Y-137673161D01*
X157128739Y-137677569D01*
X157056000Y-137686505D01*
X157052073Y-137687154D01*
X157003257Y-137694861D01*
X156971005Y-137698473D01*
X156950008Y-137697876D01*
X156934954Y-137692954D01*
X156920534Y-137683596D01*
X156919364Y-137682725D01*
X156894847Y-137652351D01*
X156890054Y-137616850D01*
X156905860Y-137582269D01*
X156910406Y-137577813D01*
X156940020Y-137562673D01*
X156987002Y-137549550D01*
X157047306Y-137538750D01*
X157116888Y-137530581D01*
X157191703Y-137525351D01*
X157267706Y-137523367D01*
X157340853Y-137524936D01*
G37*
X153488711Y-133217033D02*
X153584268Y-133234523D01*
X153748558Y-133279564D01*
X153902589Y-133342656D01*
X154048509Y-133424915D01*
X154188466Y-133527457D01*
X154324608Y-133651399D01*
X154368473Y-133696661D01*
X154480758Y-133828865D01*
X154573972Y-133966832D01*
X154650719Y-134114750D01*
X154713603Y-134276803D01*
X154717420Y-134288391D01*
X154767507Y-134474392D01*
X154800899Y-134670521D01*
X154817584Y-134872568D01*
X154817551Y-135076325D01*
X154800791Y-135277581D01*
X154767292Y-135472128D01*
X154717044Y-135655756D01*
X154673190Y-135773053D01*
X154595348Y-135935951D01*
X154501828Y-136089866D01*
X154394822Y-136231671D01*
X154276519Y-136358239D01*
X154149111Y-136466441D01*
X154071606Y-136519120D01*
X153944725Y-136588750D01*
X153807243Y-136647468D01*
X153665716Y-136692587D01*
X153526702Y-136721422D01*
X153512597Y-136723106D01*
X153469153Y-136726434D01*
X153411723Y-136729275D01*
X153346122Y-136731373D01*
X153278167Y-136732468D01*
X153151378Y-136730140D01*
X153003673Y-136717136D01*
X152865779Y-136692133D01*
X152732014Y-136654318D01*
X152708562Y-136645889D01*
X152660612Y-136626408D01*
X152604140Y-136601473D01*
X152542379Y-136572722D01*
X152478563Y-136541790D01*
X152415926Y-136510315D01*
X152357703Y-136479934D01*
X152307127Y-136452283D01*
X152267433Y-136428999D01*
X152241854Y-136411718D01*
X152233625Y-136402079D01*
X152235076Y-136398984D01*
X152246250Y-136379079D01*
X152267134Y-136343420D01*
X152296265Y-136294459D01*
X152332181Y-136234646D01*
X152373420Y-136166433D01*
X152418517Y-136092271D01*
X152599785Y-135795008D01*
X152646315Y-135839539D01*
X152737723Y-135917865D01*
X152851334Y-135992439D01*
X152969122Y-136046474D01*
X153089559Y-136079290D01*
X153211117Y-136090211D01*
X153252585Y-136088868D01*
X153370080Y-136070612D01*
X153480089Y-136031617D01*
X153581430Y-135972670D01*
X153672921Y-135894557D01*
X153753380Y-135798064D01*
X153821627Y-135683978D01*
X153837908Y-135649724D01*
X153883982Y-135526240D01*
X153919106Y-135387918D01*
X153943197Y-135238561D01*
X153956173Y-135081973D01*
X153957949Y-134921956D01*
X153948443Y-134762314D01*
X153927572Y-134606850D01*
X153895252Y-134459366D01*
X153851399Y-134323667D01*
X153813982Y-134237076D01*
X153749185Y-134123688D01*
X153673772Y-134030070D01*
X153587418Y-133955959D01*
X153489795Y-133901094D01*
X153380577Y-133865212D01*
X153259439Y-133848051D01*
X153190038Y-133846880D01*
X153067168Y-133861141D01*
X152951664Y-133896241D01*
X152844953Y-133951682D01*
X152748464Y-134026964D01*
X152732720Y-134041440D01*
X152702150Y-134067962D01*
X152679809Y-134085138D01*
X152669691Y-134089787D01*
X152667706Y-134087597D01*
X152653241Y-134068721D01*
X152629400Y-134035397D01*
X152598029Y-133990380D01*
X152560974Y-133936425D01*
X152520083Y-133876285D01*
X152477202Y-133812718D01*
X152434178Y-133748476D01*
X152392857Y-133686315D01*
X152355086Y-133628991D01*
X152322712Y-133579257D01*
X152297582Y-133539868D01*
X152281542Y-133513580D01*
X152276439Y-133503147D01*
X152281050Y-133498941D01*
X152300267Y-133493933D01*
X152309838Y-133491386D01*
X152337809Y-133480249D01*
X152379448Y-133461802D01*
X152430995Y-133437725D01*
X152488690Y-133409699D01*
X152499957Y-133404154D01*
X152677687Y-133324889D01*
X152847490Y-133265385D01*
X153011430Y-133225245D01*
X153171571Y-133204071D01*
X153329977Y-133201466D01*
X153488711Y-133217033D01*
G36*
X153488711Y-133217033D02*
G01*
X153584268Y-133234523D01*
X153748558Y-133279564D01*
X153902589Y-133342656D01*
X154048509Y-133424915D01*
X154188466Y-133527457D01*
X154324608Y-133651399D01*
X154368473Y-133696661D01*
X154480758Y-133828865D01*
X154573972Y-133966832D01*
X154650719Y-134114750D01*
X154713603Y-134276803D01*
X154717420Y-134288391D01*
X154767507Y-134474392D01*
X154800899Y-134670521D01*
X154817584Y-134872568D01*
X154817551Y-135076325D01*
X154800791Y-135277581D01*
X154767292Y-135472128D01*
X154717044Y-135655756D01*
X154673190Y-135773053D01*
X154595348Y-135935951D01*
X154501828Y-136089866D01*
X154394822Y-136231671D01*
X154276519Y-136358239D01*
X154149111Y-136466441D01*
X154071606Y-136519120D01*
X153944725Y-136588750D01*
X153807243Y-136647468D01*
X153665716Y-136692587D01*
X153526702Y-136721422D01*
X153512597Y-136723106D01*
X153469153Y-136726434D01*
X153411723Y-136729275D01*
X153346122Y-136731373D01*
X153278167Y-136732468D01*
X153151378Y-136730140D01*
X153003673Y-136717136D01*
X152865779Y-136692133D01*
X152732014Y-136654318D01*
X152708562Y-136645889D01*
X152660612Y-136626408D01*
X152604140Y-136601473D01*
X152542379Y-136572722D01*
X152478563Y-136541790D01*
X152415926Y-136510315D01*
X152357703Y-136479934D01*
X152307127Y-136452283D01*
X152267433Y-136428999D01*
X152241854Y-136411718D01*
X152233625Y-136402079D01*
X152235076Y-136398984D01*
X152246250Y-136379079D01*
X152267134Y-136343420D01*
X152296265Y-136294459D01*
X152332181Y-136234646D01*
X152373420Y-136166433D01*
X152418517Y-136092271D01*
X152599785Y-135795008D01*
X152646315Y-135839539D01*
X152737723Y-135917865D01*
X152851334Y-135992439D01*
X152969122Y-136046474D01*
X153089559Y-136079290D01*
X153211117Y-136090211D01*
X153252585Y-136088868D01*
X153370080Y-136070612D01*
X153480089Y-136031617D01*
X153581430Y-135972670D01*
X153672921Y-135894557D01*
X153753380Y-135798064D01*
X153821627Y-135683978D01*
X153837908Y-135649724D01*
X153883982Y-135526240D01*
X153919106Y-135387918D01*
X153943197Y-135238561D01*
X153956173Y-135081973D01*
X153957949Y-134921956D01*
X153948443Y-134762314D01*
X153927572Y-134606850D01*
X153895252Y-134459366D01*
X153851399Y-134323667D01*
X153813982Y-134237076D01*
X153749185Y-134123688D01*
X153673772Y-134030070D01*
X153587418Y-133955959D01*
X153489795Y-133901094D01*
X153380577Y-133865212D01*
X153259439Y-133848051D01*
X153190038Y-133846880D01*
X153067168Y-133861141D01*
X152951664Y-133896241D01*
X152844953Y-133951682D01*
X152748464Y-134026964D01*
X152732720Y-134041440D01*
X152702150Y-134067962D01*
X152679809Y-134085138D01*
X152669691Y-134089787D01*
X152667706Y-134087597D01*
X152653241Y-134068721D01*
X152629400Y-134035397D01*
X152598029Y-133990380D01*
X152560974Y-133936425D01*
X152520083Y-133876285D01*
X152477202Y-133812718D01*
X152434178Y-133748476D01*
X152392857Y-133686315D01*
X152355086Y-133628991D01*
X152322712Y-133579257D01*
X152297582Y-133539868D01*
X152281542Y-133513580D01*
X152276439Y-133503147D01*
X152281050Y-133498941D01*
X152300267Y-133493933D01*
X152309838Y-133491386D01*
X152337809Y-133480249D01*
X152379448Y-133461802D01*
X152430995Y-133437725D01*
X152488690Y-133409699D01*
X152499957Y-133404154D01*
X152677687Y-133324889D01*
X152847490Y-133265385D01*
X153011430Y-133225245D01*
X153171571Y-133204071D01*
X153329977Y-133201466D01*
X153488711Y-133217033D01*
G37*
X149685994Y-135497711D02*
X149685268Y-135575158D01*
X149676689Y-135726594D01*
X149657833Y-135863283D01*
X149627837Y-135989276D01*
X149585836Y-136108625D01*
X149530969Y-136225381D01*
X149464167Y-136336179D01*
X149373363Y-136449739D01*
X149269708Y-136545211D01*
X149153887Y-136622073D01*
X149026586Y-136679797D01*
X148888489Y-136717858D01*
X148850793Y-136723666D01*
X148771752Y-136729396D01*
X148683629Y-136729583D01*
X148594236Y-136724539D01*
X148511384Y-136714578D01*
X148442887Y-136700012D01*
X148412035Y-136690364D01*
X148334730Y-136660123D01*
X148257679Y-136622617D01*
X148188200Y-136581614D01*
X148133615Y-136540879D01*
X148110916Y-136521505D01*
X148088201Y-136503662D01*
X148076779Y-136496778D01*
X148075537Y-136498424D01*
X148072728Y-136516205D01*
X148070776Y-136549370D01*
X148070045Y-136592733D01*
X148070045Y-136688689D01*
X147211896Y-136688689D01*
X147246161Y-136627974D01*
X147251355Y-136618868D01*
X147259715Y-136604249D01*
X147267288Y-136590173D01*
X147274112Y-136575540D01*
X147280227Y-136559249D01*
X147285673Y-136540198D01*
X147290487Y-136517286D01*
X147294708Y-136489413D01*
X147298377Y-136455478D01*
X147301531Y-136414379D01*
X147304211Y-136365015D01*
X147306454Y-136306286D01*
X147308299Y-136237090D01*
X147309787Y-136156326D01*
X147310955Y-136062894D01*
X147311844Y-135955692D01*
X147312491Y-135833620D01*
X147312936Y-135695576D01*
X147313218Y-135540459D01*
X147313375Y-135367168D01*
X147313448Y-135174603D01*
X147313474Y-134961662D01*
X147313485Y-134825530D01*
X148115200Y-134825530D01*
X148115200Y-135975721D01*
X148185756Y-136022089D01*
X148226417Y-136045791D01*
X148280546Y-136071639D01*
X148329689Y-136089829D01*
X148393165Y-136105551D01*
X148489331Y-136116541D01*
X148573900Y-136108365D01*
X148647219Y-136080805D01*
X148709637Y-136033642D01*
X148761502Y-135966658D01*
X148803160Y-135879633D01*
X148834962Y-135772350D01*
X148837545Y-135760009D01*
X148846000Y-135698772D01*
X148851663Y-135621692D01*
X148854576Y-135534002D01*
X148854783Y-135440934D01*
X148852330Y-135347720D01*
X148847261Y-135259594D01*
X148839619Y-135181788D01*
X148829448Y-135119533D01*
X148828167Y-135113666D01*
X148799126Y-135003121D01*
X148764610Y-134912575D01*
X148723456Y-134839953D01*
X148674499Y-134783181D01*
X148616574Y-134740184D01*
X148584620Y-134724615D01*
X148511784Y-134705722D01*
X148430443Y-134702465D01*
X148345319Y-134714389D01*
X148261133Y-134741040D01*
X148182608Y-134781962D01*
X148115200Y-134825530D01*
X147313485Y-134825530D01*
X147313493Y-134727245D01*
X147313689Y-133042378D01*
X148219017Y-133042378D01*
X148194585Y-133079067D01*
X148188318Y-133088647D01*
X148162208Y-133134981D01*
X148144469Y-133182102D01*
X148132908Y-133237251D01*
X148125331Y-133307667D01*
X148124839Y-133314650D01*
X148123062Y-133352641D01*
X148121444Y-133406576D01*
X148119999Y-133473703D01*
X148118740Y-133551271D01*
X148117680Y-133636528D01*
X148116829Y-133726724D01*
X148116203Y-133819107D01*
X148115812Y-133910925D01*
X148115670Y-133999427D01*
X148115790Y-134081862D01*
X148116183Y-134155479D01*
X148116862Y-134217526D01*
X148117841Y-134265251D01*
X148119132Y-134295904D01*
X148120747Y-134306733D01*
X148128957Y-134302333D01*
X148150647Y-134287362D01*
X148180014Y-134265448D01*
X148228879Y-134231236D01*
X148317125Y-134184714D01*
X148415916Y-134151046D01*
X148528510Y-134129231D01*
X148658164Y-134118265D01*
X148750670Y-134117219D01*
X148872011Y-134127014D01*
X148982099Y-134151174D01*
X149085389Y-134190785D01*
X149186338Y-134246932D01*
X149231503Y-134277883D01*
X149336911Y-134369115D01*
X149428538Y-134478106D01*
X149506332Y-134604726D01*
X149570241Y-134748845D01*
X149620214Y-134910332D01*
X149656198Y-135089059D01*
X149678143Y-135284895D01*
X149683900Y-135440934D01*
X149685994Y-135497711D01*
G36*
X149685994Y-135497711D02*
G01*
X149685268Y-135575158D01*
X149676689Y-135726594D01*
X149657833Y-135863283D01*
X149627837Y-135989276D01*
X149585836Y-136108625D01*
X149530969Y-136225381D01*
X149464167Y-136336179D01*
X149373363Y-136449739D01*
X149269708Y-136545211D01*
X149153887Y-136622073D01*
X149026586Y-136679797D01*
X148888489Y-136717858D01*
X148850793Y-136723666D01*
X148771752Y-136729396D01*
X148683629Y-136729583D01*
X148594236Y-136724539D01*
X148511384Y-136714578D01*
X148442887Y-136700012D01*
X148412035Y-136690364D01*
X148334730Y-136660123D01*
X148257679Y-136622617D01*
X148188200Y-136581614D01*
X148133615Y-136540879D01*
X148110916Y-136521505D01*
X148088201Y-136503662D01*
X148076779Y-136496778D01*
X148075537Y-136498424D01*
X148072728Y-136516205D01*
X148070776Y-136549370D01*
X148070045Y-136592733D01*
X148070045Y-136688689D01*
X147211896Y-136688689D01*
X147246161Y-136627974D01*
X147251355Y-136618868D01*
X147259715Y-136604249D01*
X147267288Y-136590173D01*
X147274112Y-136575540D01*
X147280227Y-136559249D01*
X147285673Y-136540198D01*
X147290487Y-136517286D01*
X147294708Y-136489413D01*
X147298377Y-136455478D01*
X147301531Y-136414379D01*
X147304211Y-136365015D01*
X147306454Y-136306286D01*
X147308299Y-136237090D01*
X147309787Y-136156326D01*
X147310955Y-136062894D01*
X147311844Y-135955692D01*
X147312491Y-135833620D01*
X147312936Y-135695576D01*
X147313218Y-135540459D01*
X147313375Y-135367168D01*
X147313448Y-135174603D01*
X147313474Y-134961662D01*
X147313485Y-134825530D01*
X148115200Y-134825530D01*
X148115200Y-135975721D01*
X148185756Y-136022089D01*
X148226417Y-136045791D01*
X148280546Y-136071639D01*
X148329689Y-136089829D01*
X148393165Y-136105551D01*
X148489331Y-136116541D01*
X148573900Y-136108365D01*
X148647219Y-136080805D01*
X148709637Y-136033642D01*
X148761502Y-135966658D01*
X148803160Y-135879633D01*
X148834962Y-135772350D01*
X148837545Y-135760009D01*
X148846000Y-135698772D01*
X148851663Y-135621692D01*
X148854576Y-135534002D01*
X148854783Y-135440934D01*
X148852330Y-135347720D01*
X148847261Y-135259594D01*
X148839619Y-135181788D01*
X148829448Y-135119533D01*
X148828167Y-135113666D01*
X148799126Y-135003121D01*
X148764610Y-134912575D01*
X148723456Y-134839953D01*
X148674499Y-134783181D01*
X148616574Y-134740184D01*
X148584620Y-134724615D01*
X148511784Y-134705722D01*
X148430443Y-134702465D01*
X148345319Y-134714389D01*
X148261133Y-134741040D01*
X148182608Y-134781962D01*
X148115200Y-134825530D01*
X147313485Y-134825530D01*
X147313493Y-134727245D01*
X147313689Y-133042378D01*
X148219017Y-133042378D01*
X148194585Y-133079067D01*
X148188318Y-133088647D01*
X148162208Y-133134981D01*
X148144469Y-133182102D01*
X148132908Y-133237251D01*
X148125331Y-133307667D01*
X148124839Y-133314650D01*
X148123062Y-133352641D01*
X148121444Y-133406576D01*
X148119999Y-133473703D01*
X148118740Y-133551271D01*
X148117680Y-133636528D01*
X148116829Y-133726724D01*
X148116203Y-133819107D01*
X148115812Y-133910925D01*
X148115670Y-133999427D01*
X148115790Y-134081862D01*
X148116183Y-134155479D01*
X148116862Y-134217526D01*
X148117841Y-134265251D01*
X148119132Y-134295904D01*
X148120747Y-134306733D01*
X148128957Y-134302333D01*
X148150647Y-134287362D01*
X148180014Y-134265448D01*
X148228879Y-134231236D01*
X148317125Y-134184714D01*
X148415916Y-134151046D01*
X148528510Y-134129231D01*
X148658164Y-134118265D01*
X148750670Y-134117219D01*
X148872011Y-134127014D01*
X148982099Y-134151174D01*
X149085389Y-134190785D01*
X149186338Y-134246932D01*
X149231503Y-134277883D01*
X149336911Y-134369115D01*
X149428538Y-134478106D01*
X149506332Y-134604726D01*
X149570241Y-134748845D01*
X149620214Y-134910332D01*
X149656198Y-135089059D01*
X149678143Y-135284895D01*
X149683900Y-135440934D01*
X149685994Y-135497711D01*
G37*
X152227755Y-135898467D02*
X152227261Y-135932363D01*
X152223632Y-136007202D01*
X152216022Y-136069401D01*
X152203688Y-136125984D01*
X152159313Y-136252076D01*
X152096400Y-136366679D01*
X152016238Y-136467568D01*
X151919740Y-136553924D01*
X151807822Y-136624932D01*
X151681397Y-136679776D01*
X151541378Y-136717638D01*
X151505149Y-136723351D01*
X151426155Y-136729313D01*
X151337841Y-136729646D01*
X151248075Y-136724659D01*
X151164722Y-136714666D01*
X151095651Y-136699978D01*
X151009187Y-136669749D01*
X150899286Y-136615057D01*
X150801956Y-136547543D01*
X150739867Y-136496556D01*
X150736605Y-136592622D01*
X150733343Y-136688689D01*
X150310450Y-136688689D01*
X150299543Y-136688686D01*
X150205056Y-136688380D01*
X150118331Y-136687616D01*
X150041837Y-136686451D01*
X149978043Y-136684942D01*
X149929418Y-136683147D01*
X149898433Y-136681121D01*
X149887556Y-136678922D01*
X149887578Y-136678463D01*
X149894614Y-136662910D01*
X149910434Y-136640071D01*
X149914734Y-136634638D01*
X149925777Y-136620606D01*
X149935311Y-136607186D01*
X149943461Y-136592722D01*
X149950352Y-136575556D01*
X149956111Y-136554034D01*
X149960862Y-136526498D01*
X149964731Y-136491292D01*
X149967844Y-136446760D01*
X149970325Y-136391246D01*
X149972300Y-136323093D01*
X149973894Y-136240645D01*
X149975234Y-136142246D01*
X149976444Y-136026239D01*
X149977649Y-135890968D01*
X149978595Y-135779586D01*
X150779378Y-135779586D01*
X150779378Y-135975462D01*
X150824048Y-136031973D01*
X150836785Y-136047212D01*
X150883604Y-136089844D01*
X150944255Y-136125672D01*
X150954897Y-136130850D01*
X150993676Y-136147745D01*
X151028692Y-136157909D01*
X151068722Y-136163325D01*
X151122541Y-136165978D01*
X151140648Y-136166383D01*
X151216011Y-136163540D01*
X151276743Y-136151620D01*
X151328452Y-136129037D01*
X151376746Y-136094211D01*
X151381803Y-136089798D01*
X151430272Y-136034160D01*
X151458459Y-135970333D01*
X151467752Y-135895282D01*
X151460520Y-135823693D01*
X151435796Y-135760645D01*
X151391249Y-135702758D01*
X151336319Y-135655808D01*
X151263894Y-135615961D01*
X151177340Y-135588263D01*
X151074670Y-135572096D01*
X150953894Y-135566842D01*
X150945007Y-135566857D01*
X150889660Y-135567655D01*
X150842736Y-135569488D01*
X150808953Y-135572111D01*
X150793028Y-135575274D01*
X150788943Y-135581741D01*
X150784572Y-135603875D01*
X150781604Y-135642988D01*
X150779914Y-135700939D01*
X150779378Y-135779586D01*
X149978595Y-135779586D01*
X149978975Y-135734778D01*
X149980228Y-135592012D01*
X149981651Y-135446942D01*
X149983176Y-135321027D01*
X149984933Y-135212436D01*
X149987051Y-135119334D01*
X149989660Y-135039891D01*
X149992890Y-134972273D01*
X149996869Y-134914649D01*
X150001728Y-134865185D01*
X150007597Y-134822050D01*
X150014604Y-134783410D01*
X150022880Y-134747434D01*
X150032554Y-134712289D01*
X150043756Y-134676142D01*
X150056616Y-134637161D01*
X150072090Y-134594091D01*
X150114994Y-134501871D01*
X150168735Y-134422099D01*
X150237576Y-134347965D01*
X150315185Y-134284405D01*
X150419761Y-134222725D01*
X150539244Y-134175202D01*
X150674508Y-134141567D01*
X150826426Y-134121552D01*
X150995872Y-134114889D01*
X151053890Y-134115287D01*
X151119398Y-134117335D01*
X151180693Y-134121704D01*
X151242097Y-134129035D01*
X151307932Y-134139969D01*
X151382520Y-134155147D01*
X151470184Y-134175209D01*
X151575245Y-134200797D01*
X151603806Y-134207820D01*
X151679054Y-134225776D01*
X151749388Y-134241820D01*
X151810567Y-134255028D01*
X151858354Y-134264474D01*
X151888511Y-134269231D01*
X151916783Y-134272910D01*
X151943060Y-134278187D01*
X151953059Y-134282942D01*
X151949952Y-134291781D01*
X151939194Y-134319072D01*
X151921864Y-134361906D01*
X151899126Y-134417425D01*
X151872147Y-134482772D01*
X151842090Y-134555089D01*
X151835493Y-134570879D01*
X151796907Y-134661484D01*
X151765768Y-134731217D01*
X151741917Y-134780405D01*
X151725198Y-134809374D01*
X151715454Y-134818452D01*
X151707766Y-134816405D01*
X151681415Y-134806760D01*
X151642982Y-134791190D01*
X151597822Y-134771815D01*
X151503293Y-134733814D01*
X151366480Y-134692780D01*
X151225289Y-134667612D01*
X151187314Y-134663611D01*
X151084059Y-134661447D01*
X150996952Y-134674622D01*
X150925129Y-134703756D01*
X150867731Y-134749466D01*
X150823896Y-134812372D01*
X150792762Y-134893092D01*
X150773470Y-134992245D01*
X150766050Y-135051224D01*
X150927936Y-135044445D01*
X151054495Y-135042813D01*
X151205951Y-135049194D01*
X151354396Y-135063777D01*
X151490578Y-135085882D01*
X151555245Y-135100821D01*
X151687490Y-135143741D01*
X151809762Y-135200340D01*
X151919685Y-135269017D01*
X152014883Y-135348170D01*
X152092980Y-135436196D01*
X152151599Y-135531493D01*
X152175595Y-135583864D01*
X152201232Y-135654590D01*
X152217478Y-135725812D01*
X152225822Y-135804712D01*
X152227690Y-135895282D01*
X152227755Y-135898467D01*
G36*
X152227755Y-135898467D02*
G01*
X152227261Y-135932363D01*
X152223632Y-136007202D01*
X152216022Y-136069401D01*
X152203688Y-136125984D01*
X152159313Y-136252076D01*
X152096400Y-136366679D01*
X152016238Y-136467568D01*
X151919740Y-136553924D01*
X151807822Y-136624932D01*
X151681397Y-136679776D01*
X151541378Y-136717638D01*
X151505149Y-136723351D01*
X151426155Y-136729313D01*
X151337841Y-136729646D01*
X151248075Y-136724659D01*
X151164722Y-136714666D01*
X151095651Y-136699978D01*
X151009187Y-136669749D01*
X150899286Y-136615057D01*
X150801956Y-136547543D01*
X150739867Y-136496556D01*
X150736605Y-136592622D01*
X150733343Y-136688689D01*
X150310450Y-136688689D01*
X150299543Y-136688686D01*
X150205056Y-136688380D01*
X150118331Y-136687616D01*
X150041837Y-136686451D01*
X149978043Y-136684942D01*
X149929418Y-136683147D01*
X149898433Y-136681121D01*
X149887556Y-136678922D01*
X149887578Y-136678463D01*
X149894614Y-136662910D01*
X149910434Y-136640071D01*
X149914734Y-136634638D01*
X149925777Y-136620606D01*
X149935311Y-136607186D01*
X149943461Y-136592722D01*
X149950352Y-136575556D01*
X149956111Y-136554034D01*
X149960862Y-136526498D01*
X149964731Y-136491292D01*
X149967844Y-136446760D01*
X149970325Y-136391246D01*
X149972300Y-136323093D01*
X149973894Y-136240645D01*
X149975234Y-136142246D01*
X149976444Y-136026239D01*
X149977649Y-135890968D01*
X149978595Y-135779586D01*
X150779378Y-135779586D01*
X150779378Y-135975462D01*
X150824048Y-136031973D01*
X150836785Y-136047212D01*
X150883604Y-136089844D01*
X150944255Y-136125672D01*
X150954897Y-136130850D01*
X150993676Y-136147745D01*
X151028692Y-136157909D01*
X151068722Y-136163325D01*
X151122541Y-136165978D01*
X151140648Y-136166383D01*
X151216011Y-136163540D01*
X151276743Y-136151620D01*
X151328452Y-136129037D01*
X151376746Y-136094211D01*
X151381803Y-136089798D01*
X151430272Y-136034160D01*
X151458459Y-135970333D01*
X151467752Y-135895282D01*
X151460520Y-135823693D01*
X151435796Y-135760645D01*
X151391249Y-135702758D01*
X151336319Y-135655808D01*
X151263894Y-135615961D01*
X151177340Y-135588263D01*
X151074670Y-135572096D01*
X150953894Y-135566842D01*
X150945007Y-135566857D01*
X150889660Y-135567655D01*
X150842736Y-135569488D01*
X150808953Y-135572111D01*
X150793028Y-135575274D01*
X150788943Y-135581741D01*
X150784572Y-135603875D01*
X150781604Y-135642988D01*
X150779914Y-135700939D01*
X150779378Y-135779586D01*
X149978595Y-135779586D01*
X149978975Y-135734778D01*
X149980228Y-135592012D01*
X149981651Y-135446942D01*
X149983176Y-135321027D01*
X149984933Y-135212436D01*
X149987051Y-135119334D01*
X149989660Y-135039891D01*
X149992890Y-134972273D01*
X149996869Y-134914649D01*
X150001728Y-134865185D01*
X150007597Y-134822050D01*
X150014604Y-134783410D01*
X150022880Y-134747434D01*
X150032554Y-134712289D01*
X150043756Y-134676142D01*
X150056616Y-134637161D01*
X150072090Y-134594091D01*
X150114994Y-134501871D01*
X150168735Y-134422099D01*
X150237576Y-134347965D01*
X150315185Y-134284405D01*
X150419761Y-134222725D01*
X150539244Y-134175202D01*
X150674508Y-134141567D01*
X150826426Y-134121552D01*
X150995872Y-134114889D01*
X151053890Y-134115287D01*
X151119398Y-134117335D01*
X151180693Y-134121704D01*
X151242097Y-134129035D01*
X151307932Y-134139969D01*
X151382520Y-134155147D01*
X151470184Y-134175209D01*
X151575245Y-134200797D01*
X151603806Y-134207820D01*
X151679054Y-134225776D01*
X151749388Y-134241820D01*
X151810567Y-134255028D01*
X151858354Y-134264474D01*
X151888511Y-134269231D01*
X151916783Y-134272910D01*
X151943060Y-134278187D01*
X151953059Y-134282942D01*
X151949952Y-134291781D01*
X151939194Y-134319072D01*
X151921864Y-134361906D01*
X151899126Y-134417425D01*
X151872147Y-134482772D01*
X151842090Y-134555089D01*
X151835493Y-134570879D01*
X151796907Y-134661484D01*
X151765768Y-134731217D01*
X151741917Y-134780405D01*
X151725198Y-134809374D01*
X151715454Y-134818452D01*
X151707766Y-134816405D01*
X151681415Y-134806760D01*
X151642982Y-134791190D01*
X151597822Y-134771815D01*
X151503293Y-134733814D01*
X151366480Y-134692780D01*
X151225289Y-134667612D01*
X151187314Y-134663611D01*
X151084059Y-134661447D01*
X150996952Y-134674622D01*
X150925129Y-134703756D01*
X150867731Y-134749466D01*
X150823896Y-134812372D01*
X150792762Y-134893092D01*
X150773470Y-134992245D01*
X150766050Y-135051224D01*
X150927936Y-135044445D01*
X151054495Y-135042813D01*
X151205951Y-135049194D01*
X151354396Y-135063777D01*
X151490578Y-135085882D01*
X151555245Y-135100821D01*
X151687490Y-135143741D01*
X151809762Y-135200340D01*
X151919685Y-135269017D01*
X152014883Y-135348170D01*
X152092980Y-135436196D01*
X152151599Y-135531493D01*
X152175595Y-135583864D01*
X152201232Y-135654590D01*
X152217478Y-135725812D01*
X152225822Y-135804712D01*
X152227690Y-135895282D01*
X152227755Y-135898467D01*
G37*
X159775614Y-133366792D02*
X159776059Y-133498011D01*
X159776362Y-133645216D01*
X159776548Y-133809349D01*
X159776642Y-133991352D01*
X159776671Y-134192165D01*
X159776661Y-134412732D01*
X159776636Y-134653992D01*
X159776622Y-134916889D01*
X159776622Y-134959040D01*
X159776646Y-135219668D01*
X159776685Y-135458796D01*
X159776708Y-135677360D01*
X159776687Y-135876295D01*
X159776593Y-136056535D01*
X159776395Y-136219015D01*
X159776063Y-136364670D01*
X159775569Y-136494434D01*
X159774883Y-136609243D01*
X159773976Y-136710030D01*
X159772817Y-136797730D01*
X159771378Y-136873279D01*
X159769629Y-136937611D01*
X159767540Y-136991661D01*
X159765083Y-137036363D01*
X159762227Y-137072652D01*
X159758943Y-137101463D01*
X159755202Y-137123731D01*
X159750974Y-137140390D01*
X159746229Y-137152375D01*
X159740939Y-137160621D01*
X159735073Y-137166062D01*
X159728602Y-137169634D01*
X159721497Y-137172270D01*
X159713728Y-137174906D01*
X159705266Y-137178477D01*
X159700908Y-137180145D01*
X159692395Y-137182111D01*
X159679694Y-137183911D01*
X159661885Y-137185555D01*
X159638049Y-137187047D01*
X159607266Y-137188397D01*
X159568617Y-137189611D01*
X159521182Y-137190697D01*
X159464043Y-137191661D01*
X159396279Y-137192511D01*
X159316971Y-137193253D01*
X159225199Y-137193897D01*
X159120044Y-137194447D01*
X159000587Y-137194913D01*
X158865908Y-137195300D01*
X158715088Y-137195616D01*
X158547206Y-137195869D01*
X158361345Y-137196066D01*
X158156583Y-137196213D01*
X157932002Y-137196318D01*
X157686682Y-137196389D01*
X157419704Y-137196432D01*
X157381321Y-137196437D01*
X157115922Y-137196480D01*
X156872050Y-137196525D01*
X156648783Y-137196548D01*
X156445196Y-137196524D01*
X156260367Y-137196430D01*
X156093373Y-137196243D01*
X155943290Y-137195939D01*
X155809196Y-137195494D01*
X155690166Y-137194885D01*
X155585279Y-137194089D01*
X155493610Y-137193080D01*
X155414237Y-137191837D01*
X155346237Y-137190335D01*
X155288686Y-137188551D01*
X155240662Y-137186461D01*
X155201240Y-137184042D01*
X155169499Y-137181270D01*
X155144514Y-137178121D01*
X155125364Y-137174572D01*
X155111123Y-137170598D01*
X155100871Y-137166178D01*
X155093682Y-137161286D01*
X155088635Y-137155900D01*
X155084805Y-137149996D01*
X155081271Y-137143549D01*
X155077108Y-137136537D01*
X155076025Y-137134687D01*
X155073813Y-137129180D01*
X155071786Y-137120868D01*
X155069938Y-137108809D01*
X155068261Y-137092063D01*
X155066745Y-137069687D01*
X155065383Y-137040740D01*
X155064167Y-137004280D01*
X155063089Y-136959367D01*
X155062140Y-136905057D01*
X155061312Y-136840410D01*
X155060597Y-136764484D01*
X155059987Y-136676338D01*
X155059942Y-136667493D01*
X155351378Y-136667493D01*
X155355260Y-136668765D01*
X155378520Y-136670791D01*
X155420874Y-136672626D01*
X155480132Y-136674227D01*
X155554107Y-136675549D01*
X155640610Y-136676548D01*
X155737452Y-136677180D01*
X155842445Y-136677400D01*
X156540651Y-136677400D01*
X157695090Y-136677400D01*
X157694456Y-136601200D01*
X157695574Y-136559160D01*
X157701304Y-136523334D01*
X157713890Y-136485772D01*
X157735568Y-136437577D01*
X157738789Y-136430897D01*
X157764188Y-136381359D01*
X157790996Y-136333369D01*
X157813917Y-136296466D01*
X157818485Y-136289834D01*
X157840516Y-136258593D01*
X157872693Y-136213654D01*
X157913457Y-136157147D01*
X157961245Y-136091204D01*
X158014498Y-136017957D01*
X158071655Y-135939536D01*
X158131155Y-135858072D01*
X158191437Y-135775698D01*
X158250940Y-135694544D01*
X158308105Y-135616742D01*
X158361370Y-135544423D01*
X158409174Y-135479718D01*
X158449957Y-135424759D01*
X158482158Y-135381676D01*
X158504216Y-135352602D01*
X158514571Y-135339667D01*
X158519044Y-135335351D01*
X158523236Y-135333312D01*
X158526643Y-135335926D01*
X158529325Y-135344986D01*
X158531341Y-135362285D01*
X158532748Y-135389614D01*
X158533605Y-135428765D01*
X158533970Y-135481533D01*
X158533903Y-135549707D01*
X158533460Y-135635082D01*
X158532702Y-135739449D01*
X158531685Y-135864600D01*
X158531308Y-135909300D01*
X158530169Y-136030395D01*
X158528972Y-136131688D01*
X158527636Y-136215262D01*
X158526077Y-136283204D01*
X158524215Y-136337599D01*
X158521966Y-136380532D01*
X158519248Y-136414089D01*
X158515979Y-136440355D01*
X158512078Y-136461416D01*
X158507461Y-136479357D01*
X158499192Y-136505770D01*
X158475583Y-136567772D01*
X158449685Y-136620573D01*
X158424535Y-136657645D01*
X158423339Y-136659075D01*
X158421168Y-136663424D01*
X158423328Y-136667026D01*
X158431644Y-136669951D01*
X158447940Y-136672269D01*
X158474041Y-136674051D01*
X158511771Y-136675367D01*
X158562956Y-136676286D01*
X158629420Y-136676878D01*
X158712987Y-136677215D01*
X158815483Y-136677365D01*
X158938732Y-136677400D01*
X159470296Y-136677400D01*
X159431523Y-136619783D01*
X159425432Y-136610893D01*
X159414976Y-136596069D01*
X159405579Y-136582422D01*
X159397183Y-136568765D01*
X159389733Y-136553911D01*
X159383173Y-136536670D01*
X159377446Y-136515855D01*
X159372495Y-136490280D01*
X159368266Y-136458755D01*
X159364701Y-136420093D01*
X159361744Y-136373107D01*
X159359340Y-136316608D01*
X159357431Y-136249409D01*
X159355962Y-136170322D01*
X159354876Y-136078160D01*
X159354118Y-135971734D01*
X159353630Y-135849857D01*
X159353358Y-135711341D01*
X159353243Y-135554999D01*
X159353231Y-135379642D01*
X159353265Y-135184082D01*
X159353289Y-134967133D01*
X159353280Y-134844513D01*
X159353243Y-134639447D01*
X159353227Y-134455116D01*
X159353288Y-134290334D01*
X159353484Y-134143916D01*
X159353870Y-134014674D01*
X159354505Y-133901422D01*
X159355444Y-133802975D01*
X159356745Y-133718144D01*
X159358464Y-133645744D01*
X159360659Y-133584589D01*
X159363385Y-133533492D01*
X159366701Y-133491267D01*
X159370662Y-133456727D01*
X159375325Y-133428686D01*
X159380747Y-133405958D01*
X159386986Y-133387356D01*
X159394097Y-133371693D01*
X159402138Y-133357784D01*
X159411166Y-133344441D01*
X159421236Y-133330479D01*
X159432407Y-133314711D01*
X159472197Y-133256867D01*
X158412314Y-133256867D01*
X158450311Y-133319966D01*
X158464993Y-133345005D01*
X158479531Y-133372586D01*
X158491627Y-133400700D01*
X158501532Y-133431551D01*
X158509494Y-133467344D01*
X158515761Y-133510283D01*
X158520582Y-133562574D01*
X158524206Y-133626419D01*
X158526881Y-133704025D01*
X158528857Y-133797594D01*
X158530382Y-133909333D01*
X158531704Y-134041445D01*
X158532613Y-134161434D01*
X158533020Y-134278063D01*
X158532767Y-134373531D01*
X158531857Y-134447556D01*
X158530293Y-134499855D01*
X158528079Y-134530149D01*
X158525220Y-134538156D01*
X158522161Y-134534858D01*
X158504006Y-134513408D01*
X158474275Y-134476889D01*
X158434639Y-134427442D01*
X158386771Y-134367207D01*
X158332343Y-134298327D01*
X158273027Y-134222943D01*
X158210495Y-134143196D01*
X158146421Y-134061228D01*
X158082475Y-133979180D01*
X158020331Y-133899194D01*
X157961661Y-133823411D01*
X157908137Y-133753973D01*
X157861430Y-133693021D01*
X157823214Y-133642696D01*
X157795161Y-133605140D01*
X157778943Y-133582495D01*
X157733635Y-133510212D01*
X157693661Y-133430463D01*
X157672130Y-133362188D01*
X157668827Y-133304844D01*
X157674116Y-133256867D01*
X156542356Y-133257117D01*
X156581867Y-133287722D01*
X156591248Y-133295089D01*
X156654183Y-133349438D01*
X156722997Y-133417259D01*
X156799596Y-133500516D01*
X156885888Y-133601178D01*
X156903052Y-133621847D01*
X156943833Y-133671409D01*
X156993588Y-133732326D01*
X157050955Y-133802898D01*
X157114569Y-133881424D01*
X157183069Y-133966204D01*
X157255090Y-134055537D01*
X157329270Y-134147722D01*
X157344517Y-134166702D01*
X157404246Y-134241060D01*
X157478653Y-134333848D01*
X157551131Y-134424388D01*
X157620314Y-134510978D01*
X157684841Y-134591918D01*
X157743347Y-134665506D01*
X157794470Y-134730044D01*
X157836847Y-134783829D01*
X157869115Y-134825162D01*
X157889910Y-134852342D01*
X157897869Y-134863668D01*
X157896111Y-134867771D01*
X157883230Y-134888334D01*
X157858885Y-134924561D01*
X157824247Y-134974824D01*
X157780486Y-135037492D01*
X157728775Y-135110936D01*
X157670284Y-135193527D01*
X157606184Y-135283636D01*
X157537646Y-135379631D01*
X157465843Y-135479885D01*
X157391944Y-135582768D01*
X157317121Y-135686650D01*
X157242545Y-135789901D01*
X157169387Y-135890892D01*
X157098819Y-135987994D01*
X157032011Y-136079577D01*
X156970135Y-136164011D01*
X156914361Y-136239667D01*
X156865862Y-136304916D01*
X156825807Y-136358128D01*
X156795369Y-136397673D01*
X156774944Y-136423026D01*
X156728899Y-136477295D01*
X156678612Y-136533775D01*
X156631815Y-136583669D01*
X156540651Y-136677400D01*
X155842445Y-136677400D01*
X155911356Y-136677349D01*
X156009607Y-136677091D01*
X156099030Y-136676637D01*
X156177333Y-136676010D01*
X156242223Y-136675235D01*
X156291411Y-136674335D01*
X156322604Y-136673334D01*
X156333511Y-136672257D01*
X156332322Y-136669037D01*
X156322176Y-136651452D01*
X156305040Y-136625158D01*
X156296540Y-136612691D01*
X156287329Y-136598622D01*
X156279233Y-136584351D01*
X156272185Y-136568479D01*
X156266117Y-136549609D01*
X156260961Y-136526341D01*
X156256651Y-136497278D01*
X156253119Y-136461021D01*
X156250297Y-136416170D01*
X156248118Y-136361328D01*
X156246514Y-136295097D01*
X156245419Y-136216077D01*
X156244765Y-136122871D01*
X156244484Y-136014079D01*
X156244509Y-135888303D01*
X156244772Y-135744145D01*
X156245206Y-135580207D01*
X156245745Y-135395089D01*
X156246279Y-135216232D01*
X156246805Y-135057374D01*
X156247350Y-134918316D01*
X156247945Y-134797665D01*
X156248619Y-134694028D01*
X156249403Y-134606011D01*
X156250326Y-134532223D01*
X156251419Y-134471269D01*
X156252712Y-134421757D01*
X156254235Y-134382293D01*
X156256019Y-134351484D01*
X156258092Y-134327938D01*
X156260486Y-134310260D01*
X156263230Y-134297059D01*
X156266356Y-134286940D01*
X156269892Y-134278511D01*
X156273791Y-134270375D01*
X156293438Y-134233544D01*
X156312225Y-134203391D01*
X156313272Y-134201908D01*
X156327602Y-134179659D01*
X156333511Y-134166702D01*
X156332504Y-134166249D01*
X156315305Y-134164803D01*
X156278656Y-134163480D01*
X156224962Y-134162316D01*
X156156630Y-134161347D01*
X156076064Y-134160611D01*
X155985670Y-134160142D01*
X155887853Y-134159978D01*
X155442195Y-134159978D01*
X155439120Y-135336845D01*
X155436045Y-136513711D01*
X155409407Y-136572622D01*
X155397485Y-136597183D01*
X155380246Y-136627434D01*
X155367074Y-136644560D01*
X155359076Y-136652591D01*
X155351378Y-136667493D01*
X155059942Y-136667493D01*
X155059474Y-136575029D01*
X155059050Y-136459617D01*
X155058706Y-136329160D01*
X155058434Y-136182716D01*
X155058227Y-136019344D01*
X155058076Y-135838101D01*
X155057972Y-135638048D01*
X155057908Y-135418241D01*
X155057876Y-135177739D01*
X155057867Y-134915602D01*
X155057867Y-132724031D01*
X155096249Y-132685649D01*
X155123355Y-132661911D01*
X155150253Y-132650111D01*
X155186560Y-132647267D01*
X155238489Y-132647267D01*
X155238489Y-132735206D01*
X155240427Y-132785102D01*
X155259199Y-132895523D01*
X155296217Y-132996987D01*
X155349369Y-133088152D01*
X155416546Y-133167673D01*
X155495638Y-133234205D01*
X155584534Y-133286406D01*
X155681125Y-133322930D01*
X155783300Y-133342434D01*
X155888950Y-133343573D01*
X155995964Y-133325005D01*
X156102232Y-133285384D01*
X156199219Y-133227516D01*
X156284293Y-133152684D01*
X156353015Y-133064615D01*
X156403918Y-132965616D01*
X156435535Y-132857993D01*
X156446400Y-132744054D01*
X156446400Y-132647267D01*
X158066753Y-132647267D01*
X158277897Y-132647280D01*
X158482020Y-132647330D01*
X158665686Y-132647430D01*
X158829991Y-132647592D01*
X158976029Y-132647829D01*
X159104894Y-132648153D01*
X159217683Y-132648575D01*
X159315488Y-132649109D01*
X159399404Y-132649767D01*
X159470527Y-132650561D01*
X159529950Y-132651504D01*
X159578768Y-132652608D01*
X159618077Y-132653884D01*
X159648969Y-132655347D01*
X159672541Y-132657007D01*
X159689886Y-132658878D01*
X159702099Y-132660972D01*
X159710275Y-132663300D01*
X159715508Y-132665876D01*
X159721504Y-132669445D01*
X159728279Y-132672978D01*
X159734478Y-132676488D01*
X159740126Y-132680918D01*
X159745247Y-132687208D01*
X159749869Y-132696301D01*
X159754015Y-132709139D01*
X159757713Y-132726662D01*
X159760987Y-132749813D01*
X159763863Y-132779534D01*
X159766367Y-132816765D01*
X159768524Y-132862449D01*
X159770360Y-132917527D01*
X159771900Y-132982941D01*
X159773170Y-133059633D01*
X159774195Y-133148544D01*
X159775001Y-133250617D01*
X159775034Y-133256867D01*
X159775614Y-133366792D01*
G36*
X159775614Y-133366792D02*
G01*
X159776059Y-133498011D01*
X159776362Y-133645216D01*
X159776548Y-133809349D01*
X159776642Y-133991352D01*
X159776671Y-134192165D01*
X159776661Y-134412732D01*
X159776636Y-134653992D01*
X159776622Y-134916889D01*
X159776622Y-134959040D01*
X159776646Y-135219668D01*
X159776685Y-135458796D01*
X159776708Y-135677360D01*
X159776687Y-135876295D01*
X159776593Y-136056535D01*
X159776395Y-136219015D01*
X159776063Y-136364670D01*
X159775569Y-136494434D01*
X159774883Y-136609243D01*
X159773976Y-136710030D01*
X159772817Y-136797730D01*
X159771378Y-136873279D01*
X159769629Y-136937611D01*
X159767540Y-136991661D01*
X159765083Y-137036363D01*
X159762227Y-137072652D01*
X159758943Y-137101463D01*
X159755202Y-137123731D01*
X159750974Y-137140390D01*
X159746229Y-137152375D01*
X159740939Y-137160621D01*
X159735073Y-137166062D01*
X159728602Y-137169634D01*
X159721497Y-137172270D01*
X159713728Y-137174906D01*
X159705266Y-137178477D01*
X159700908Y-137180145D01*
X159692395Y-137182111D01*
X159679694Y-137183911D01*
X159661885Y-137185555D01*
X159638049Y-137187047D01*
X159607266Y-137188397D01*
X159568617Y-137189611D01*
X159521182Y-137190697D01*
X159464043Y-137191661D01*
X159396279Y-137192511D01*
X159316971Y-137193253D01*
X159225199Y-137193897D01*
X159120044Y-137194447D01*
X159000587Y-137194913D01*
X158865908Y-137195300D01*
X158715088Y-137195616D01*
X158547206Y-137195869D01*
X158361345Y-137196066D01*
X158156583Y-137196213D01*
X157932002Y-137196318D01*
X157686682Y-137196389D01*
X157419704Y-137196432D01*
X157381321Y-137196437D01*
X157115922Y-137196480D01*
X156872050Y-137196525D01*
X156648783Y-137196548D01*
X156445196Y-137196524D01*
X156260367Y-137196430D01*
X156093373Y-137196243D01*
X155943290Y-137195939D01*
X155809196Y-137195494D01*
X155690166Y-137194885D01*
X155585279Y-137194089D01*
X155493610Y-137193080D01*
X155414237Y-137191837D01*
X155346237Y-137190335D01*
X155288686Y-137188551D01*
X155240662Y-137186461D01*
X155201240Y-137184042D01*
X155169499Y-137181270D01*
X155144514Y-137178121D01*
X155125364Y-137174572D01*
X155111123Y-137170598D01*
X155100871Y-137166178D01*
X155093682Y-137161286D01*
X155088635Y-137155900D01*
X155084805Y-137149996D01*
X155081271Y-137143549D01*
X155077108Y-137136537D01*
X155076025Y-137134687D01*
X155073813Y-137129180D01*
X155071786Y-137120868D01*
X155069938Y-137108809D01*
X155068261Y-137092063D01*
X155066745Y-137069687D01*
X155065383Y-137040740D01*
X155064167Y-137004280D01*
X155063089Y-136959367D01*
X155062140Y-136905057D01*
X155061312Y-136840410D01*
X155060597Y-136764484D01*
X155059987Y-136676338D01*
X155059942Y-136667493D01*
X155351378Y-136667493D01*
X155355260Y-136668765D01*
X155378520Y-136670791D01*
X155420874Y-136672626D01*
X155480132Y-136674227D01*
X155554107Y-136675549D01*
X155640610Y-136676548D01*
X155737452Y-136677180D01*
X155842445Y-136677400D01*
X156540651Y-136677400D01*
X157695090Y-136677400D01*
X157694456Y-136601200D01*
X157695574Y-136559160D01*
X157701304Y-136523334D01*
X157713890Y-136485772D01*
X157735568Y-136437577D01*
X157738789Y-136430897D01*
X157764188Y-136381359D01*
X157790996Y-136333369D01*
X157813917Y-136296466D01*
X157818485Y-136289834D01*
X157840516Y-136258593D01*
X157872693Y-136213654D01*
X157913457Y-136157147D01*
X157961245Y-136091204D01*
X158014498Y-136017957D01*
X158071655Y-135939536D01*
X158131155Y-135858072D01*
X158191437Y-135775698D01*
X158250940Y-135694544D01*
X158308105Y-135616742D01*
X158361370Y-135544423D01*
X158409174Y-135479718D01*
X158449957Y-135424759D01*
X158482158Y-135381676D01*
X158504216Y-135352602D01*
X158514571Y-135339667D01*
X158519044Y-135335351D01*
X158523236Y-135333312D01*
X158526643Y-135335926D01*
X158529325Y-135344986D01*
X158531341Y-135362285D01*
X158532748Y-135389614D01*
X158533605Y-135428765D01*
X158533970Y-135481533D01*
X158533903Y-135549707D01*
X158533460Y-135635082D01*
X158532702Y-135739449D01*
X158531685Y-135864600D01*
X158531308Y-135909300D01*
X158530169Y-136030395D01*
X158528972Y-136131688D01*
X158527636Y-136215262D01*
X158526077Y-136283204D01*
X158524215Y-136337599D01*
X158521966Y-136380532D01*
X158519248Y-136414089D01*
X158515979Y-136440355D01*
X158512078Y-136461416D01*
X158507461Y-136479357D01*
X158499192Y-136505770D01*
X158475583Y-136567772D01*
X158449685Y-136620573D01*
X158424535Y-136657645D01*
X158423339Y-136659075D01*
X158421168Y-136663424D01*
X158423328Y-136667026D01*
X158431644Y-136669951D01*
X158447940Y-136672269D01*
X158474041Y-136674051D01*
X158511771Y-136675367D01*
X158562956Y-136676286D01*
X158629420Y-136676878D01*
X158712987Y-136677215D01*
X158815483Y-136677365D01*
X158938732Y-136677400D01*
X159470296Y-136677400D01*
X159431523Y-136619783D01*
X159425432Y-136610893D01*
X159414976Y-136596069D01*
X159405579Y-136582422D01*
X159397183Y-136568765D01*
X159389733Y-136553911D01*
X159383173Y-136536670D01*
X159377446Y-136515855D01*
X159372495Y-136490280D01*
X159368266Y-136458755D01*
X159364701Y-136420093D01*
X159361744Y-136373107D01*
X159359340Y-136316608D01*
X159357431Y-136249409D01*
X159355962Y-136170322D01*
X159354876Y-136078160D01*
X159354118Y-135971734D01*
X159353630Y-135849857D01*
X159353358Y-135711341D01*
X159353243Y-135554999D01*
X159353231Y-135379642D01*
X159353265Y-135184082D01*
X159353289Y-134967133D01*
X159353280Y-134844513D01*
X159353243Y-134639447D01*
X159353227Y-134455116D01*
X159353288Y-134290334D01*
X159353484Y-134143916D01*
X159353870Y-134014674D01*
X159354505Y-133901422D01*
X159355444Y-133802975D01*
X159356745Y-133718144D01*
X159358464Y-133645744D01*
X159360659Y-133584589D01*
X159363385Y-133533492D01*
X159366701Y-133491267D01*
X159370662Y-133456727D01*
X159375325Y-133428686D01*
X159380747Y-133405958D01*
X159386986Y-133387356D01*
X159394097Y-133371693D01*
X159402138Y-133357784D01*
X159411166Y-133344441D01*
X159421236Y-133330479D01*
X159432407Y-133314711D01*
X159472197Y-133256867D01*
X158412314Y-133256867D01*
X158450311Y-133319966D01*
X158464993Y-133345005D01*
X158479531Y-133372586D01*
X158491627Y-133400700D01*
X158501532Y-133431551D01*
X158509494Y-133467344D01*
X158515761Y-133510283D01*
X158520582Y-133562574D01*
X158524206Y-133626419D01*
X158526881Y-133704025D01*
X158528857Y-133797594D01*
X158530382Y-133909333D01*
X158531704Y-134041445D01*
X158532613Y-134161434D01*
X158533020Y-134278063D01*
X158532767Y-134373531D01*
X158531857Y-134447556D01*
X158530293Y-134499855D01*
X158528079Y-134530149D01*
X158525220Y-134538156D01*
X158522161Y-134534858D01*
X158504006Y-134513408D01*
X158474275Y-134476889D01*
X158434639Y-134427442D01*
X158386771Y-134367207D01*
X158332343Y-134298327D01*
X158273027Y-134222943D01*
X158210495Y-134143196D01*
X158146421Y-134061228D01*
X158082475Y-133979180D01*
X158020331Y-133899194D01*
X157961661Y-133823411D01*
X157908137Y-133753973D01*
X157861430Y-133693021D01*
X157823214Y-133642696D01*
X157795161Y-133605140D01*
X157778943Y-133582495D01*
X157733635Y-133510212D01*
X157693661Y-133430463D01*
X157672130Y-133362188D01*
X157668827Y-133304844D01*
X157674116Y-133256867D01*
X156542356Y-133257117D01*
X156581867Y-133287722D01*
X156591248Y-133295089D01*
X156654183Y-133349438D01*
X156722997Y-133417259D01*
X156799596Y-133500516D01*
X156885888Y-133601178D01*
X156903052Y-133621847D01*
X156943833Y-133671409D01*
X156993588Y-133732326D01*
X157050955Y-133802898D01*
X157114569Y-133881424D01*
X157183069Y-133966204D01*
X157255090Y-134055537D01*
X157329270Y-134147722D01*
X157344517Y-134166702D01*
X157404246Y-134241060D01*
X157478653Y-134333848D01*
X157551131Y-134424388D01*
X157620314Y-134510978D01*
X157684841Y-134591918D01*
X157743347Y-134665506D01*
X157794470Y-134730044D01*
X157836847Y-134783829D01*
X157869115Y-134825162D01*
X157889910Y-134852342D01*
X157897869Y-134863668D01*
X157896111Y-134867771D01*
X157883230Y-134888334D01*
X157858885Y-134924561D01*
X157824247Y-134974824D01*
X157780486Y-135037492D01*
X157728775Y-135110936D01*
X157670284Y-135193527D01*
X157606184Y-135283636D01*
X157537646Y-135379631D01*
X157465843Y-135479885D01*
X157391944Y-135582768D01*
X157317121Y-135686650D01*
X157242545Y-135789901D01*
X157169387Y-135890892D01*
X157098819Y-135987994D01*
X157032011Y-136079577D01*
X156970135Y-136164011D01*
X156914361Y-136239667D01*
X156865862Y-136304916D01*
X156825807Y-136358128D01*
X156795369Y-136397673D01*
X156774944Y-136423026D01*
X156728899Y-136477295D01*
X156678612Y-136533775D01*
X156631815Y-136583669D01*
X156540651Y-136677400D01*
X155842445Y-136677400D01*
X155911356Y-136677349D01*
X156009607Y-136677091D01*
X156099030Y-136676637D01*
X156177333Y-136676010D01*
X156242223Y-136675235D01*
X156291411Y-136674335D01*
X156322604Y-136673334D01*
X156333511Y-136672257D01*
X156332322Y-136669037D01*
X156322176Y-136651452D01*
X156305040Y-136625158D01*
X156296540Y-136612691D01*
X156287329Y-136598622D01*
X156279233Y-136584351D01*
X156272185Y-136568479D01*
X156266117Y-136549609D01*
X156260961Y-136526341D01*
X156256651Y-136497278D01*
X156253119Y-136461021D01*
X156250297Y-136416170D01*
X156248118Y-136361328D01*
X156246514Y-136295097D01*
X156245419Y-136216077D01*
X156244765Y-136122871D01*
X156244484Y-136014079D01*
X156244509Y-135888303D01*
X156244772Y-135744145D01*
X156245206Y-135580207D01*
X156245745Y-135395089D01*
X156246279Y-135216232D01*
X156246805Y-135057374D01*
X156247350Y-134918316D01*
X156247945Y-134797665D01*
X156248619Y-134694028D01*
X156249403Y-134606011D01*
X156250326Y-134532223D01*
X156251419Y-134471269D01*
X156252712Y-134421757D01*
X156254235Y-134382293D01*
X156256019Y-134351484D01*
X156258092Y-134327938D01*
X156260486Y-134310260D01*
X156263230Y-134297059D01*
X156266356Y-134286940D01*
X156269892Y-134278511D01*
X156273791Y-134270375D01*
X156293438Y-134233544D01*
X156312225Y-134203391D01*
X156313272Y-134201908D01*
X156327602Y-134179659D01*
X156333511Y-134166702D01*
X156332504Y-134166249D01*
X156315305Y-134164803D01*
X156278656Y-134163480D01*
X156224962Y-134162316D01*
X156156630Y-134161347D01*
X156076064Y-134160611D01*
X155985670Y-134160142D01*
X155887853Y-134159978D01*
X155442195Y-134159978D01*
X155439120Y-135336845D01*
X155436045Y-136513711D01*
X155409407Y-136572622D01*
X155397485Y-136597183D01*
X155380246Y-136627434D01*
X155367074Y-136644560D01*
X155359076Y-136652591D01*
X155351378Y-136667493D01*
X155059942Y-136667493D01*
X155059474Y-136575029D01*
X155059050Y-136459617D01*
X155058706Y-136329160D01*
X155058434Y-136182716D01*
X155058227Y-136019344D01*
X155058076Y-135838101D01*
X155057972Y-135638048D01*
X155057908Y-135418241D01*
X155057876Y-135177739D01*
X155057867Y-134915602D01*
X155057867Y-132724031D01*
X155096249Y-132685649D01*
X155123355Y-132661911D01*
X155150253Y-132650111D01*
X155186560Y-132647267D01*
X155238489Y-132647267D01*
X155238489Y-132735206D01*
X155240427Y-132785102D01*
X155259199Y-132895523D01*
X155296217Y-132996987D01*
X155349369Y-133088152D01*
X155416546Y-133167673D01*
X155495638Y-133234205D01*
X155584534Y-133286406D01*
X155681125Y-133322930D01*
X155783300Y-133342434D01*
X155888950Y-133343573D01*
X155995964Y-133325005D01*
X156102232Y-133285384D01*
X156199219Y-133227516D01*
X156284293Y-133152684D01*
X156353015Y-133064615D01*
X156403918Y-132965616D01*
X156435535Y-132857993D01*
X156446400Y-132744054D01*
X156446400Y-132647267D01*
X158066753Y-132647267D01*
X158277897Y-132647280D01*
X158482020Y-132647330D01*
X158665686Y-132647430D01*
X158829991Y-132647592D01*
X158976029Y-132647829D01*
X159104894Y-132648153D01*
X159217683Y-132648575D01*
X159315488Y-132649109D01*
X159399404Y-132649767D01*
X159470527Y-132650561D01*
X159529950Y-132651504D01*
X159578768Y-132652608D01*
X159618077Y-132653884D01*
X159648969Y-132655347D01*
X159672541Y-132657007D01*
X159689886Y-132658878D01*
X159702099Y-132660972D01*
X159710275Y-132663300D01*
X159715508Y-132665876D01*
X159721504Y-132669445D01*
X159728279Y-132672978D01*
X159734478Y-132676488D01*
X159740126Y-132680918D01*
X159745247Y-132687208D01*
X159749869Y-132696301D01*
X159754015Y-132709139D01*
X159757713Y-132726662D01*
X159760987Y-132749813D01*
X159763863Y-132779534D01*
X159766367Y-132816765D01*
X159768524Y-132862449D01*
X159770360Y-132917527D01*
X159771900Y-132982941D01*
X159773170Y-133059633D01*
X159774195Y-133148544D01*
X159775001Y-133250617D01*
X159775034Y-133256867D01*
X159775614Y-133366792D01*
G37*
%TD*%
M02*
